<svg width="74" height="64" viewBox="0 0 74 64" fill="none" xmlns="http://www.w3.org/2000/svg">
<path fill-rule="evenodd" clip-rule="evenodd" d="M72.8735 60.0816L38.9143 1.30612C38.4082 0.432653 37.5347 0 36.6531 0C35.7715 0 34.8898 0.432653 34.3919 1.30612L0.432679 60.0816C-0.571403 61.8286 0.68574 64 2.6939 64H70.6123C72.6204 64 73.8776 61.8286 72.8735 60.0816ZM34.0408 24.1633C34.0408 23.8041 34.3347 23.5102 34.6939 23.5102H38.6123C38.9715 23.5102 39.2653 23.8041 39.2653 24.1633V39.1837C39.2653 39.5429 38.9715 39.8367 38.6123 39.8367H34.6939C34.3347 39.8367 34.0408 39.5429 34.0408 39.1837V24.1633ZM32.8139 48.9796C32.8139 51.1129 34.5202 52.8544 36.6531 52.898C38.786 52.8544 40.4923 51.1129 40.4923 48.9796C40.4923 46.8463 38.786 45.1048 36.6531 45.0612C34.5202 45.1048 32.8139 46.8463 32.8139 48.9796Z" fill="#9E1068"/>
</svg>