<svg width="1280" height="841" viewBox="0 0 1280 841" fill="none" xmlns="http://www.w3.org/2000/svg">
<path fill-rule="evenodd" clip-rule="evenodd" d="M356.547 235.318C360.729 240.977 359.531 248.955 353.872 253.136L21.1317 499.004C15.4726 503.185 7.49528 501.987 3.31374 496.328C-0.867809 490.669 0.329926 482.692 5.98895 478.51L338.729 232.643C344.388 228.462 352.366 229.659 356.547 235.318Z" fill="black"/>
<path fill-rule="evenodd" clip-rule="evenodd" d="M352.947 233.1C360.904 236.853 364.311 246.346 360.558 254.303L186.364 623.55C182.611 631.507 173.118 634.914 165.161 631.161C157.205 627.407 153.798 617.914 157.551 609.958L331.744 240.71C335.498 232.753 344.991 229.346 352.947 233.1Z" fill="#420B27"/>
<path fill-rule="evenodd" clip-rule="evenodd" d="M777.786 6.7153C786.587 15.3302 786.737 29.4486 778.123 38.2496L191.915 637.123C183.301 645.924 169.182 646.075 160.381 637.46C151.58 628.845 151.429 614.726 160.044 605.925L746.251 7.05233C754.866 -1.7487 768.985 -1.89959 777.786 6.7153Z" fill="#580E3A"/>
<path fill-rule="evenodd" clip-rule="evenodd" d="M778.454 5.84138C791.193 13.6721 795.172 30.347 787.341 43.0859L306.633 825.093C298.802 837.832 282.128 841.811 269.389 833.98C256.65 826.149 252.671 809.474 260.502 796.735L741.21 14.7284C749.04 1.98951 765.715 -1.98933 778.454 5.84138Z" fill="#6E1242"/>
<path fill-rule="evenodd" clip-rule="evenodd" d="M952.153 236.238C963.066 248.898 961.65 268.008 948.99 278.921L307.5 831.899C294.84 842.812 275.73 841.396 264.817 828.736C253.904 816.076 255.32 796.967 267.98 786.053L909.47 233.076C922.13 222.162 941.24 223.579 952.153 236.238Z" fill="#83154F"/>
<path fill-rule="evenodd" clip-rule="evenodd" d="M943.639 228.908C959.755 235.96 967.102 254.741 960.05 270.857L804.334 626.694C797.282 642.809 778.501 650.156 762.385 643.104C746.27 636.052 738.923 617.271 745.975 601.156L901.691 245.319C908.743 229.203 927.524 221.856 943.639 228.908Z" fill="#99195C"/>
<path fill-rule="evenodd" clip-rule="evenodd" d="M1272.8 318.7C1284.17 337.519 1278.14 361.996 1259.32 373.371L805.733 647.551C786.914 658.926 762.437 652.892 751.062 634.073C739.686 615.254 745.72 590.777 764.539 579.402L1218.13 305.223C1236.95 293.848 1261.42 299.882 1272.8 318.7Z" fill="#B51E6D"/>
</svg>
