<svg width="80" height="53" viewBox="0 0 80 53" fill="none" xmlns="http://www.w3.org/2000/svg">
<g clip-path="url(#clip0_113_1230)">
<path fill-rule="evenodd" clip-rule="evenodd" d="M22.2842 14.7074C22.5455 15.0611 22.4707 15.5597 22.117 15.821L1.32068 31.1877C0.966994 31.4491 0.468409 31.3742 0.207063 31.0205C-0.0542838 30.6668 0.0205746 30.1682 0.374264 29.9069L21.1705 14.5402C21.5242 14.2788 22.0228 14.3537 22.2842 14.7074Z" fill="black"/>
<path fill-rule="evenodd" clip-rule="evenodd" d="M22.0592 14.5685C22.5565 14.8031 22.7695 15.3964 22.5349 15.8937L11.6478 38.9717C11.4132 39.469 10.8199 39.682 10.3226 39.4474C9.82534 39.2128 9.61239 38.6195 9.84699 38.1222L20.7341 15.0442C20.9687 14.5469 21.562 14.3339 22.0592 14.5685Z" fill="#420B27"/>
<path fill-rule="evenodd" clip-rule="evenodd" d="M48.6116 0.419707C49.1616 0.958138 49.1711 1.84054 48.6326 2.3906L11.9947 39.8202C11.4562 40.3702 10.5738 40.3797 10.0238 39.8412C9.47371 39.3028 9.46428 38.4204 10.0027 37.8703L46.6407 0.440771C47.1791 -0.109294 48.0615 -0.118725 48.6116 0.419707Z" fill="#580E3A"/>
<path fill-rule="evenodd" clip-rule="evenodd" d="M48.6534 0.365086C49.4496 0.854506 49.6982 1.89669 49.2088 2.69287L19.1646 51.5683C18.6751 52.3645 17.633 52.6132 16.8368 52.1237C16.0406 51.6343 15.7919 50.5921 16.2813 49.796L46.3256 0.920524C46.815 0.124345 47.8572 -0.124333 48.6534 0.365086Z" fill="#6E1242"/>
<path fill-rule="evenodd" clip-rule="evenodd" d="M59.5095 14.7649C60.1916 15.5562 60.1031 16.7505 59.3118 17.4326L19.2187 51.9937C18.4274 52.6758 17.2331 52.5873 16.551 51.796C15.869 51.0048 15.9575 49.8104 16.7487 49.1284L56.8418 14.5673C57.6331 13.8852 58.8274 13.9737 59.5095 14.7649Z" fill="#83154F"/>
<path fill-rule="evenodd" clip-rule="evenodd" d="M58.9774 14.3066C59.9846 14.7474 60.4438 15.9212 60.0031 16.9284L50.2708 39.1682C49.8301 40.1754 48.6563 40.6346 47.6491 40.1939C46.6418 39.7531 46.1827 38.5793 46.6234 37.5721L56.3557 15.3323C56.7964 14.3251 57.9702 13.8659 58.9774 14.3066Z" fill="#99195C"/>
<path fill-rule="evenodd" clip-rule="evenodd" d="M79.5499 19.9188C80.2608 21.095 79.8837 22.6248 78.7075 23.3358L50.3583 40.472C49.1821 41.1829 47.6523 40.8058 46.9414 39.6296C46.2304 38.4535 46.6075 36.9236 47.7837 36.2127L76.1329 19.0765C77.3091 18.3655 78.8389 18.7427 79.5499 19.9188Z" fill="#B51E6D"/>
</g>
<defs>
<clipPath id="clip0_113_1230">
<rect width="80" height="52.5262" fill="white"/>
</clipPath>
</defs>
</svg>
