<svg width="25" height="25" viewBox="0 0 25 25" fill="none" xmlns="http://www.w3.org/2000/svg">
<path d="M23.0407 4.6467C23.0313 4.63733 21.1313 6.51545 17.3501 10.2904L14.6969 7.63732L20.3501 1.9842C17.3751 0.193582 13.5532 0.652956 11.0751 3.13108C10.1278 4.07782 9.44611 5.25699 9.09837 6.55032C8.75063 7.84365 8.74906 9.20569 9.09382 10.4998L9.15007 10.7092L0.290698 19.5654C0.0969482 19.7592 0.0969482 20.0779 0.290698 20.2717L4.70945 24.6904C4.9032 24.8842 5.22195 24.8842 5.4157 24.6904L14.2688 15.8373L14.4782 15.8936C17.0938 16.5904 19.9032 15.8654 21.8532 13.9154C24.3344 11.4373 24.7938 7.61545 23.0407 4.6467Z" fill="#141414"/>
</svg>
