<svg width="213" height="32" viewBox="0 0 213 32" fill="none" xmlns="http://www.w3.org/2000/svg">
<path fill-rule="evenodd" clip-rule="evenodd" d="M27.0472 5.0724L27.1632 5.17686L27.2902 5.27111L27.4268 5.35698L27.5719 5.43619L27.724 5.51044L27.8818 5.58131L28.0439 5.65034L28.2088 5.71903L28.3749 5.78877L28.5408 5.86093L28.7046 5.93677L28.8649 6.0175L29.0198 6.10419L29.1679 6.19786L29.3074 6.29939L29.4367 6.40953L29.5543 6.52891L29.6589 6.65802L29.749 6.79718L29.8236 6.94659L29.8816 7.10625L29.9223 7.27603L29.9449 7.45566L29.9491 7.64469L29.9347 7.84256L29.9018 8.04857L29.8505 8.26193L29.7814 8.48174L29.6951 8.70703L29.5925 8.93678L29.4747 9.16994L29.3427 9.40544L29.198 9.64221L29.042 9.87921L28.8761 10.1154L28.7019 10.3499L28.521 10.5818L28.335 10.8102L28.1454 11.0345L27.9537 11.2539L27.7616 11.468L27.5704 11.6761L27.3816 11.8781L27.1963 12.0734L27.0159 12.262L26.8415 12.4437L26.6742 12.6183L26.515 12.7859L26.3648 12.9466L26.2246 13.1003L26.0951 13.2474L25.9771 13.3878L25.8715 13.522L25.779 13.65L25.7003 13.7723L25.6362 13.889L25.5874 14.0006L25.5548 14.1073L25.5393 14.2096L25.5418 14.3078L25.5634 14.4023L25.6052 14.4935L25.6687 14.5818L25.7552 14.6678L25.8665 14.7519L26.0047 14.8345L26.1719 14.9164L26.3708 14.998L26.6045 15.0802L26.8765 15.1635L27.191 15.249L27.5528 15.3375L27.9677 15.4301L28.4424 15.5283L28.985 15.6334L29.605 15.7474L30.3139 15.8723L31.1254 16.0108L31.1949 16.1621L30.3746 16.3018L29.658 16.4277L29.0314 16.5424L28.483 16.6482L28.0032 16.7468L27.5838 16.8399L27.218 16.9287L26.8999 17.0143L26.6247 17.0978L26.3881 17.18L26.1866 17.2617L26.0169 17.3435L25.8766 17.426L25.7632 17.51L25.6747 17.5958L25.6095 17.6839L25.566 17.7749L25.5428 17.8691L25.5389 17.9669L25.553 18.0689L25.5843 18.1753L25.6318 18.2864L25.6947 18.4028L25.7723 18.5246L25.8637 18.6522L25.9683 18.7858L26.0853 18.9258L26.2139 19.0723L26.3533 19.2255L26.5027 19.3856L26.6613 19.5526L26.828 19.7267L27.0018 19.9078L27.1818 20.0958L27.3667 20.2907L27.5554 20.4921L27.7464 20.6998L27.9385 20.9134L28.1302 21.1324L28.3201 21.3563L28.5064 21.5845L28.6878 21.8161L28.8626 22.0504L29.0292 22.2865L29.1861 22.5235L29.3318 22.7603L29.4648 22.996L29.5838 23.2294L29.6876 23.4594L29.7752 23.6851L29.8458 23.9054L29.8985 24.1193L29.9329 24.3259L29.9488 24.5245L29.946 24.7142L29.9249 24.8946L29.8857 25.0652L29.829 25.2257L29.7557 25.3759L29.6668 25.5159L29.5633 25.6458L29.4467 25.7659L29.3182 25.8768L29.1795 25.9789L29.0321 26.0732L28.8776 26.1604L28.7177 26.2416L28.5541 26.3178L28.3884 26.3902L28.2222 26.46L28.0571 26.5288L27.8948 26.5977L27.7366 26.6684L27.5839 26.7423L27.4383 26.8211L27.3009 26.9063L27.1731 26.9998L27.0562 27.1034L26.9508 27.2186L26.8558 27.3447L26.7694 27.4806L26.6897 27.625L26.6151 27.7766L26.544 27.934L26.4749 28.0959L26.4062 28.2606L26.3366 28.4267L26.2647 28.5926L26.1892 28.7566L26.1089 28.9172L26.0227 29.0727L25.9297 29.2213L25.8288 29.3615L25.7194 29.4917L25.6007 29.6104L25.4724 29.716L25.3341 29.8073L25.1855 29.8832L25.0267 29.9426L24.8577 29.9846L24.6788 30.0087L24.4905 30.0144L24.2933 30.0015L24.0879 29.97L23.8751 29.9201L23.6558 29.8524L23.4309 29.7675L23.2015 29.6662L22.9685 29.5495L22.7332 29.4186L22.4965 29.2749L22.2594 29.1197L22.0231 28.9545L21.7885 28.7809L21.5563 28.6005L21.3276 28.4148L21.103 28.2254L20.8831 28.0339L20.6686 27.8418L20.46 27.6505L20.2575 27.4613L20.0616 27.2758L19.8725 27.0949L19.6903 26.92L19.5151 26.7521L19.3469 26.5922L19.1857 26.4412L19.0314 26.3002L18.8839 26.1698L18.7429 26.0509L18.6082 25.9443L18.4797 25.8507L18.357 25.7709L18.2398 25.7056L18.1278 25.6555L18.0207 25.6216L17.9181 25.6047L17.8196 25.6057L17.7248 25.6258L17.6334 25.6659L17.5448 25.7276L17.4587 25.8122L17.3745 25.9215L17.2918 26.0575L17.2099 26.2223L17.1282 26.4186L17.0462 26.6493L16.9629 26.9181L16.8777 27.2291L16.7895 27.5869L16.6972 27.9973L16.5996 28.467L16.495 29.0039L16.3819 29.6173L16.2579 30.3187L16.1206 31.1215L15.9695 31.33L15.8286 30.5007L15.7017 29.7764L15.5861 29.1431L15.4797 28.5888L15.3806 28.1039L15.2871 27.6799L15.198 27.3101L15.1122 26.9884L15.0285 26.7099L14.9463 26.4704L14.8646 26.2662L14.7828 26.0941L14.7003 25.9515L14.6165 25.836L14.5309 25.7456L14.443 25.6786L14.3522 25.6335L14.2583 25.6087L14.1607 25.6033L14.0591 25.616L13.9531 25.6459L13.8423 25.6922L13.7264 25.7539L13.6051 25.8303L13.478 25.9207L13.3448 26.0243L13.2054 26.1403L13.0594 26.268L12.9067 26.4066L12.7472 26.5552L12.5807 26.7131L12.4072 26.8791L12.2266 27.0525L12.0391 27.232L11.8448 27.4166L11.6439 27.605L11.4367 27.7959L11.2236 27.9879L11.005 28.1797L10.7814 28.3697L10.5536 28.5565L10.3223 28.7383L10.0881 28.9137L9.85212 29.081L9.61518 29.2387L9.3783 29.3853L9.14253 29.5193L8.90893 29.6395L8.67856 29.7446L8.45249 29.8335L8.23175 29.9054L8.0173 29.9596L7.81006 29.9955L7.61084 30.0128L7.42036 30.0116L7.2392 29.9919L7.06783 29.9541L6.90654 29.8988L6.7555 29.8268L6.61471 29.739L6.48402 29.6367L6.36312 29.521L6.25155 29.3935L6.1487 29.2555L6.05383 29.1087L5.96609 28.9547L5.88449 28.7952L5.80794 28.6318L5.73528 28.4662L5.66524 28.3L5.59648 28.1348L5.5276 27.9722L5.45712 27.8136L5.38352 27.6605L5.30521 27.5142L5.22051 27.3761L5.12772 27.2476L5.02501 27.1297L4.9108 27.0234L4.78548 26.9277L4.6503 26.8406L4.50651 26.7604L4.35543 26.6855L4.19842 26.6142L4.03691 26.545L3.87237 26.4763L3.70632 26.4068L3.54035 26.3351L3.37607 26.26L3.21514 26.1801L3.05922 26.0944L2.90996 26.0019L2.76901 25.9017L2.63797 25.793L2.51836 25.6751L2.41164 25.5476L2.31911 25.41L2.24198 25.2623L2.18126 25.1042L2.13782 24.936L2.11229 24.758L2.10512 24.5704L2.11655 24.3739L2.14655 24.1691L2.19493 23.9569L2.26124 23.738L2.34484 23.5135L2.44489 23.2844L2.56039 23.0517L2.69016 22.8165L2.83292 22.5799L2.98725 22.3429L3.15168 22.1065L3.32465 21.8716L3.5046 21.6393L3.68993 21.4103L3.87907 21.1853L4.07046 20.965L4.2626 20.7501L4.45403 20.541L4.64336 20.338L4.82927 20.1416L5.01053 19.9519L5.18596 19.7692L5.35447 19.5934L5.51504 19.4247L5.66671 19.2629L5.8086 19.1081L5.93985 18.96L6.05967 18.8185L6.16729 18.6834L6.26195 18.5544L6.3429 18.4312L6.4094 18.3136L6.46067 18.2012L6.49589 18.0937L6.51419 17.9907L6.51463 17.8919L6.49616 17.7969L6.45763 17.7052L6.39773 17.6164L6.31499 17.5301L6.20772 17.4458L6.07398 17.3629L5.91156 17.281L5.71789 17.1993L5.48997 17.1173L5.22434 17.0342L4.91694 16.9492L4.56303 16.8612L4.15702 16.7693L3.69233 16.6721L3.16113 16.5682L2.55415 16.4558L1.86027 16.3328L1.06613 16.1967L0.718547 16.046L1.55691 15.9038L2.28897 15.7759L2.9291 15.6596L3.48927 15.5525L3.97943 15.4528L4.40795 15.359L4.78188 15.2696L5.10718 15.1835L5.38892 15.0998L5.6314 15.0174L5.83833 14.9357L6.01287 14.854L6.15774 14.7715L6.2753 14.6879L6.36759 14.6024L6.43639 14.5147L6.48326 14.4242L6.50957 14.3305L6.51653 14.2333L6.50522 14.132L6.47663 14.0264L6.43165 13.916L6.37112 13.8005L6.29582 13.6796L6.20653 13.5529L6.10398 13.4203L5.98893 13.2813L5.86213 13.1359L5.72438 12.9838L5.57649 12.8248L5.41935 12.6588L5.25388 12.4859L5.08108 12.3059L4.902 12.1189L4.71779 11.9252L4.52966 11.7248L4.3389 11.5181L4.14687 11.3054L3.955 11.0872L3.76478 10.864L3.57774 10.6365L3.39546 10.4054L3.21951 10.1714L3.05149 9.93553L2.89295 9.69862L2.74541 9.46171L2.6103 9.22581L2.48897 8.99199L2.38264 8.76132L2.29237 8.53487L2.21909 8.31366L2.1635 8.09868L2.12614 7.89083L2.1073 7.69095L2.10708 7.49975L2.12533 7.31783L2.1617 7.14566L2.21563 6.98357L2.28634 6.83171L2.37287 6.69011L2.47409 6.55863L2.58873 6.43696L2.7154 6.32467L2.85259 6.22115L2.99873 6.12568L3.1522 6.03741L3.31133 5.95536L3.47448 5.87846L3.63997 5.80554L3.80617 5.73534L3.9715 5.66653L4.1344 5.59771L4.29337 5.52742L4.44697 5.45413L4.59382 5.37625L4.73259 5.29213L4.86198 5.20005L4.98076 5.0982L5.08793 4.98492L5.18445 4.86045L5.27215 4.726L5.3528 4.58285L5.42809 4.43231L5.49961 4.27572L5.56895 4.11452L5.63758 3.95016L5.70695 3.78418L5.77841 3.61814L5.85326 3.45367L5.93271 3.29242L6.01788 3.13603L6.10979 2.98618L6.20937 2.84452L6.31739 2.71263L6.43451 2.59206L6.56125 2.48426L6.69799 2.39056L6.84494 2.31217L7.00216 2.25011L7.16954 2.20527L7.34685 2.1783L7.53368 2.16966L7.7295 2.1796L7.93364 2.20814L8.14532 2.25507L8.36367 2.31998L8.58775 2.40223L8.81653 2.50101L9.04898 2.61532L9.28401 2.74401L9.52057 2.88579L9.75761 3.03925L9.99411 3.20293L10.2291 3.37529L10.4617 3.55474L10.691 3.73971L10.9163 3.9286L11.137 4.11988L11.3524 4.31201L11.562 4.50355L11.7654 4.69311L11.9624 4.87934L12.1526 5.06102L12.3359 5.23696L12.5123 5.40606L12.6816 5.5673L12.8439 5.71972L12.9993 5.86242L13.1479 5.99455L13.2899 6.11531L13.4255 6.22393L13.555 6.31965L13.6786 6.40172L13.7967 6.46941L13.9094 6.52192L14.0173 6.55845L14.1206 6.57813L14.2198 6.58003L14.3151 6.56311L14.407 6.52622L14.496 6.46808L14.5825 6.38722L14.667 6.28197L14.7499 6.15042L14.8319 5.99038L14.9136 5.79929L14.9955 5.57422L15.0785 5.31174L15.1633 5.00783L15.251 4.65782L15.3426 4.25619L15.4393 3.79643L15.5426 3.27086L15.6542 2.6703L15.7763 1.98379L15.9113 1.19819L16.0613 0.711509L16.2048 1.55905L16.3337 2.29901L16.4509 2.946L16.5586 3.51214L16.6588 4.00755L16.7531 4.44071L16.8428 4.81876L16.9291 5.14774L17.013 5.43278L17.0955 5.67825L17.1772 5.88789L17.2589 6.0649L17.3413 6.21204L17.4248 6.3317L17.5101 6.42594L17.5976 6.49655L17.6879 6.54512L17.7813 6.57302L17.8782 6.58148L17.9792 6.57159L18.0845 6.54434L18.1945 6.50063L18.3095 6.44132L18.43 6.36717L18.5562 6.27897L18.6884 6.17745L18.8268 6.06337L18.9717 5.93748L19.1233 5.80057L19.2817 5.65346L19.4471 5.49703L19.6195 5.33219L19.7989 5.15993L19.9853 4.98132L20.1785 4.79748L20.3784 4.60962L20.5846 4.41902L20.7969 4.22705L21.0146 4.03511L21.2374 3.84471L21.4646 3.65736L21.6955 3.47465L21.9292 3.29814L22.165 3.12943L22.4019 2.97009L22.6388 2.82162L22.8748 2.68548L23.1088 2.56301L23.3398 2.45544L23.5666 2.36387L23.7883 2.2892L24.0038 2.23219L24.2122 2.19336L24.4128 2.17305L24.6047 2.17135L24.7874 2.18814L24.9603 2.22309L25.1232 2.27565L25.2759 2.34506L25.4183 2.43037L25.5506 2.53047L25.673 2.64409L25.7861 2.76985L25.8903 2.90627L25.9863 3.05176L26.0752 3.2047L26.1577 3.36345L26.2349 3.52634L26.3081 3.6917L26.3785 3.85791L26.4474 4.02337L26.5162 4.18651L26.5863 4.34585L26.6593 4.49994L26.7367 4.64738L26.8203 4.78683L26.9117 4.91702L27.0127 5.03669L27.0472 5.0724Z" fill="black"/>
<path d="M41.3053 23.954H45.0139L46.284 11.9645H46.3348L47.6048 23.954H51.0848L52.8883 6.17296H50.4752L49.2305 19.839H49.1797L47.8589 6.17296H44.8107L43.4898 19.839H43.439L42.1943 6.17296H39.5018L41.3053 23.954Z" fill="black"/>
<path d="M53.2178 23.954H55.8087L56.3168 20.474H59.4919V20.4232L60 23.954H62.7941L59.8984 6.17296H56.1135L53.2178 23.954ZM56.647 18.0609L57.8662 9.27194H57.917L59.1617 18.0609H56.647Z" fill="black"/>
<path d="M65.3863 23.954H69.0949L71.7874 6.17296H69.2219L67.393 19.966H67.3422L65.5133 6.17296H62.6937L65.3863 23.954Z" fill="black"/>
<path d="M73.1295 23.954H80.75V21.4138H75.9237V15.9525H79.7593V13.4124H75.9237V8.71311H80.75V6.17296H73.1295V23.954Z" fill="black"/>
<path d="M82.3574 23.954H85.1516V16.3335H86.1168C87.3869 16.3335 87.8695 16.867 87.8695 18.5181V21.7695C87.8695 23.2174 87.9712 23.4968 88.1236 23.954H90.9685C90.6891 23.2936 90.6637 22.6585 90.6637 21.7949V18.6705C90.6637 16.6638 90.2065 15.3429 88.8094 14.9111V14.8603C90.0541 14.3522 90.6383 13.1838 90.6383 11.3549V10.2626C90.6383 7.51924 89.3936 6.17296 86.4979 6.17296H82.3574V23.954ZM85.1516 13.7934V8.71311H86.4217C87.4123 8.71311 87.8441 9.27194 87.8441 10.542V11.9137C87.8441 13.3362 87.2091 13.7934 86.1677 13.7934H85.1516Z" fill="black"/>
<path d="M96.6412 24.208C99.3846 24.208 100.883 22.5823 100.883 19.7373V10.3896C100.883 7.54464 99.3846 5.91895 96.6412 5.91895C93.8978 5.91895 92.3991 7.54464 92.3991 10.3896V19.7373C92.3991 22.5823 93.8978 24.208 96.6412 24.208ZM96.6412 21.6679C95.7521 21.6679 95.1933 21.1852 95.1933 19.9152V10.2118C95.1933 8.94172 95.7521 8.45909 96.6412 8.45909C97.5302 8.45909 98.0891 8.94172 98.0891 10.2118V19.9152C98.0891 21.1852 97.5302 21.6679 96.6412 21.6679Z" fill="black"/>
<path d="M106.812 24.208C109.555 24.208 111.054 22.5823 111.054 19.7373V10.3896C111.054 7.54464 109.555 5.91895 106.812 5.91895C104.068 5.91895 102.57 7.54464 102.57 10.3896V19.7373C102.57 22.5823 104.068 24.208 106.812 24.208ZM106.812 21.6679C105.923 21.6679 105.364 21.1852 105.364 19.9152V10.2118C105.364 8.94172 105.923 8.45909 106.812 8.45909C107.701 8.45909 108.26 8.94172 108.26 10.2118V19.9152C108.26 21.1852 107.701 21.6679 106.812 21.6679Z" fill="black"/>
<path d="M112.943 23.954H115.382V10.4912H115.433L117.465 23.954H119.802L121.834 10.4912H121.885V23.954H124.526V6.17296H120.538L118.76 18.8991H118.71L116.931 6.17296H112.943V23.954Z" fill="black"/>
<path d="M134.312 24.208C137.056 24.208 138.529 22.5823 138.529 19.6865C138.529 17.4766 137.792 16.0541 135.455 13.9966C133.626 12.3963 133.042 11.4565 133.042 10.161C133.042 8.94172 133.55 8.45909 134.439 8.45909C135.328 8.45909 135.836 8.94172 135.836 10.2118V11.1262H138.478V10.3896C138.478 7.54464 137.132 5.91895 134.414 5.91895C131.696 5.91895 130.248 7.54464 130.248 10.3388C130.248 12.3709 131.01 13.8188 133.347 15.8763C135.176 17.4766 135.735 18.4165 135.735 19.8898C135.735 21.2106 135.176 21.6679 134.287 21.6679C133.398 21.6679 132.839 21.2106 132.839 19.9406V18.7213H130.197V19.7373C130.197 22.5823 131.569 24.208 134.312 24.208Z" fill="black"/>
<path d="M144.195 24.208C146.938 24.208 148.361 22.5823 148.361 19.7373V6.17296H145.668V19.9406C145.668 21.2106 145.135 21.6679 144.246 21.6679C143.357 21.6679 142.823 21.2106 142.823 19.9406V6.17296H140.029V19.7373C140.029 22.5823 141.452 24.208 144.195 24.208Z" fill="black"/>
<path d="M150.351 23.954H153.145V16.7146H154.466C157.26 16.7146 158.632 15.1651 158.632 12.3201V10.5674C158.632 7.72245 157.26 6.17296 154.466 6.17296H150.351V23.954ZM153.145 14.1744V8.71311H154.466C155.355 8.71311 155.838 9.11953 155.838 10.3896V12.4979C155.838 13.768 155.355 14.1744 154.466 14.1744H153.145Z" fill="black"/>
<path d="M160.149 23.954H162.944V16.7146H164.264C167.059 16.7146 168.43 15.1651 168.43 12.3201V10.5674C168.43 7.72245 167.059 6.17296 164.264 6.17296H160.149V23.954ZM162.944 14.1744V8.71311H164.264C165.154 8.71311 165.636 9.11953 165.636 10.3896V12.4979C165.636 13.768 165.154 14.1744 164.264 14.1744H162.944Z" fill="black"/>
<path d="M169.948 23.954H177.34V21.4138H172.742V6.17296H169.948V23.954Z" fill="black"/>
<path d="M179.013 23.954H181.807V16.3844L185.185 6.17296H182.467L180.562 12.7011H180.511L178.606 6.17296H175.634L179.013 16.3844V23.954Z" fill="black"/>
<path d="M194.449 24.208C197.142 24.208 198.564 22.5823 198.564 19.839V17.3242H195.923V20.0422C195.923 21.2106 195.364 21.6679 194.526 21.6679C193.687 21.6679 193.128 21.2106 193.128 20.0422V10.1102C193.128 8.94172 193.687 8.45909 194.526 8.45909C195.364 8.45909 195.923 8.94172 195.923 10.1102V12.1677H198.564V10.288C198.564 7.54464 197.142 5.91895 194.449 5.91895C191.757 5.91895 190.334 7.54464 190.334 10.288V19.839C190.334 22.5823 191.757 24.208 194.449 24.208Z" fill="black"/>
<path d="M204.325 24.208C207.068 24.208 208.567 22.5823 208.567 19.7373V10.3896C208.567 7.54464 207.068 5.91895 204.325 5.91895C201.581 5.91895 200.083 7.54464 200.083 10.3896V19.7373C200.083 22.5823 201.581 24.208 204.325 24.208ZM204.325 21.6679C203.436 21.6679 202.877 21.1852 202.877 19.9152V10.2118C202.877 8.94172 203.436 8.45909 204.325 8.45909C205.214 8.45909 205.772 8.94172 205.772 10.2118V19.9152C205.772 21.1852 205.214 21.6679 204.325 21.6679Z" fill="black"/>
<path d="M210.307 23.954H213V21.2614H210.307V23.954Z" fill="black"/>
</svg>
