<svg width="16" height="18" viewBox="0 0 16 18" fill="none" xmlns="http://www.w3.org/2000/svg">
<path d="M12.0867 3.00369L11.3802 3.25549C11.4786 3.53167 11.729 3.72517 12.0211 3.75082L12.0867 3.00369ZM12.8575 3.4855L12.2144 3.87138V3.87138L12.8575 3.4855ZM12.9965 3.91339L12.2492 3.97779C12.2745 4.27038 12.4681 4.52133 12.7448 4.61989L12.9965 3.91339ZM11.5731 5.42231L11.9866 4.79655C11.7457 4.6374 11.4348 4.63065 11.1873 4.77919L11.5731 5.42231ZM10.2772 3.86748L10.6631 4.5106C10.9839 4.3181 11.1138 3.91858 10.9675 3.57421L10.2772 3.86748ZM6.86164 5.91682L6.35543 6.47022C6.60022 6.69414 6.96304 6.73063 7.24751 6.55994L6.86164 5.91682ZM7.42575 10.4216L7.81163 9.77852C7.46686 9.57166 7.0203 9.67347 6.79926 10.0093L7.42575 10.4216ZM10.2772 12.1325L10.9675 12.4258C11.1138 12.0814 10.9839 11.6819 10.6631 11.4894L10.2772 12.1325ZM11.5731 10.5777L11.1873 11.2208C11.4348 11.3694 11.7457 11.3626 11.9866 11.2034L11.5731 10.5777ZM7.99938 8.43344L7.24951 8.44742C7.25433 8.70585 7.39187 8.94358 7.61351 9.07656L7.99938 8.43344ZM7.89137 7.63137L7.5055 6.98825C7.22124 7.15881 7.08267 7.49575 7.16469 7.81694L7.89137 7.63137ZM12.0867 12.9963L12.0211 12.2492C11.729 12.2748 11.4786 12.4683 11.3802 12.7445L12.0867 12.9963ZM12.8575 12.5145L12.2144 12.1286L12.2144 12.1286L12.8575 12.5145ZM12.9965 12.0866L12.7448 11.3801C12.4681 11.4787 12.2745 11.7296 12.2492 12.0222L12.9965 12.0866ZM12.75 2.5C12.75 2.08579 13.0858 1.75 13.5 1.75V0.25C12.2574 0.25 11.25 1.25736 11.25 2.5H12.75ZM12.7931 2.7519C12.7654 2.67415 12.75 2.58969 12.75 2.5H11.25C11.25 2.7637 11.2957 3.01837 11.3802 3.25549L12.7931 2.7519ZM12.0211 3.75082C12.1003 3.75778 12.1718 3.80048 12.2144 3.87138L13.5006 3.09963C13.2005 2.59944 12.6894 2.30374 12.1523 2.25657L12.0211 3.75082ZM12.2144 3.87138C12.2353 3.90625 12.2462 3.94218 12.2492 3.97779L13.7437 3.849C13.7215 3.59103 13.6415 3.33445 13.5006 3.09963L12.2144 3.87138ZM13.5 3.25C13.4103 3.25 13.3259 3.23459 13.2482 3.2069L12.7448 4.61989C12.9818 4.70435 13.2364 4.75 13.5 4.75V3.25ZM14.25 2.5C14.25 2.91421 13.9142 3.25 13.5 3.25V4.75C14.7426 4.75 15.75 3.74264 15.75 2.5H14.25ZM13.5 1.75C13.9142 1.75 14.25 2.08579 14.25 2.5H15.75C15.75 1.25736 14.7426 0.25 13.5 0.25V1.75ZM11.1597 6.04807C11.8312 6.49173 12.6366 6.75 13.5 6.75V5.25C12.9395 5.25 12.4203 5.08314 11.9866 4.79655L11.1597 6.04807ZM13.5 6.75C15.8472 6.75 17.75 4.84721 17.75 2.5H16.25C16.25 4.01878 15.0188 5.25 13.5 5.25V6.75ZM17.75 2.5C17.75 0.15279 15.8472 -1.75 13.5 -1.75V-0.25C15.0188 -0.25 16.25 0.981217 16.25 2.5H17.75ZM13.5 -1.75C11.1528 -1.75 9.25 0.15279 9.25 2.5H10.75C10.75 0.981217 11.9812 -0.25 13.5 -0.25V-1.75ZM9.25 2.5C9.25 3.08781 9.36976 3.64958 9.58693 4.16075L10.9675 3.57421C10.8277 3.24517 10.75 2.88263 10.75 2.5H9.25ZM7.24751 6.55994L10.6631 4.5106L9.89135 3.22436L6.47577 5.2737L7.24751 6.55994ZM7.36786 5.36343C6.61253 4.6725 5.60474 4.25 4.5 4.25V5.75C5.21554 5.75 5.86576 6.02229 6.35543 6.47022L7.36786 5.36343ZM4.5 4.25C2.15279 4.25 0.25 6.15279 0.25 8.5H1.75C1.75 6.98122 2.98122 5.75 4.5 5.75V4.25ZM0.25 8.5C0.25 10.8472 2.15279 12.75 4.5 12.75V11.25C2.98122 11.25 1.75 10.0188 1.75 8.5H0.25ZM4.5 12.75C5.98618 12.75 7.29369 11.9866 8.05225 10.834L6.79926 10.0093C6.30636 10.7583 5.46042 11.25 4.5 11.25V12.75ZM7.03988 11.0648L9.89135 12.7756L10.6631 11.4894L7.81163 9.77852L7.03988 11.0648ZM9.58693 11.8393C9.36976 12.3504 9.25 12.9122 9.25 13.5H10.75C10.75 13.1174 10.8277 12.7548 10.9675 12.4258L9.58693 11.8393ZM9.25 13.5C9.25 15.8472 11.1528 17.75 13.5 17.75V16.25C11.9812 16.25 10.75 15.0188 10.75 13.5H9.25ZM13.5 17.75C15.8472 17.75 17.75 15.8472 17.75 13.5H16.25C16.25 15.0188 15.0188 16.25 13.5 16.25V17.75ZM17.75 13.5C17.75 11.1528 15.8472 9.25 13.5 9.25V10.75C15.0188 10.75 16.25 11.9812 16.25 13.5H17.75ZM13.5 9.25C12.6366 9.25 11.8312 9.50827 11.1597 9.95193L11.9866 11.2034C12.4203 10.9169 12.9395 10.75 13.5 10.75V9.25ZM11.959 9.93457L8.38525 7.79032L7.61351 9.07656L11.1873 11.2208L11.959 9.93457ZM8.74925 8.41945C8.74301 8.08471 8.69793 7.7586 8.61805 7.4458L7.16469 7.81694C7.21614 8.01844 7.24544 8.22942 7.24951 8.44742L8.74925 8.41945ZM11.1873 4.77919L7.5055 6.98825L8.27724 8.27449L11.959 6.06543L11.1873 4.77919ZM3.75 8.5C3.75 8.08579 4.08579 7.75 4.5 7.75V6.25C3.25736 6.25 2.25 7.25736 2.25 8.5H3.75ZM4.5 9.25C4.08579 9.25 3.75 8.91421 3.75 8.5H2.25C2.25 9.74264 3.25736 10.75 4.5 10.75V9.25ZM5.25 8.5C5.25 8.91421 4.91421 9.25 4.5 9.25V10.75C5.74264 10.75 6.75 9.74264 6.75 8.5H5.25ZM4.5 7.75C4.91421 7.75 5.25 8.08579 5.25 8.5H6.75C6.75 7.25736 5.74264 6.25 4.5 6.25V7.75ZM12.1523 13.7434C12.6894 13.6963 13.2005 13.4006 13.5006 12.9004L12.2144 12.1286C12.1718 12.1995 12.1003 12.2422 12.0211 12.2492L12.1523 13.7434ZM12.75 13.5C12.75 13.4103 12.7654 13.3258 12.7931 13.2481L11.3802 12.7445C11.2957 12.9816 11.25 13.2363 11.25 13.5H12.75ZM13.5 14.25C13.0858 14.25 12.75 13.9142 12.75 13.5H11.25C11.25 14.7426 12.2574 15.75 13.5 15.75V14.25ZM14.25 13.5C14.25 13.9142 13.9142 14.25 13.5 14.25V15.75C14.7426 15.75 15.75 14.7426 15.75 13.5H14.25ZM13.5 12.75C13.9142 12.75 14.25 13.0858 14.25 13.5H15.75C15.75 12.2574 14.7426 11.25 13.5 11.25V12.75ZM13.2482 12.7931C13.3259 12.7654 13.4103 12.75 13.5 12.75V11.25C13.2364 11.25 12.9818 11.2956 12.7448 11.3801L13.2482 12.7931ZM13.5006 12.9004C13.6415 12.6656 13.7215 12.409 13.7437 12.151L12.2492 12.0222C12.2462 12.0578 12.2353 12.0937 12.2144 12.1286L13.5006 12.9004Z" fill="#3AA935"/>
</svg>
