<svg width="102" height="48" viewBox="0 0 102 48" fill="none" xmlns="http://www.w3.org/2000/svg">
<path fill-rule="evenodd" clip-rule="evenodd" d="M36 4C36 1.79086 37.7909 0 40 0H62C64.2091 0 66 1.79086 66 4V44C66 46.2091 64.2091 48 62 48H40C37.7909 48 36 46.2091 36 44V4ZM55.649 22.2003L47.0245 32.9393L44.4351 31.5162L46.7064 24.8503L42.9071 27.7351L41.0929 25.3457L48.8028 19.4918L51.1297 21.1702L50.0252 24.4119L57.5352 15.0607L60.162 16.3553L58.5716 22.8784L60.1094 21.7438L61.8906 24.1578L57.0253 27.7474L54.6775 26.1851L55.649 22.2003ZM55 42H48V44H55V42Z" fill="#141414"/>
<path fill-rule="evenodd" clip-rule="evenodd" d="M72 4C72 1.79086 73.7909 0 76 0H98C100.209 0 102 1.79086 102 4V44C102 46.2091 100.209 48 98 48H76C73.7909 48 72 46.2091 72 44V4ZM87 16L94 30H80L87 16ZM98 42H91V44H98V42Z" fill="#141414"/>
<path fill-rule="evenodd" clip-rule="evenodd" d="M0 4C0 1.79086 1.79086 0 4 0H26C28.2091 0 30 1.79086 30 4V44C30 46.2091 28.2091 48 26 48H4C1.79086 48 0 46.2091 0 44V4ZM24 24.5C24 29.1944 20.1944 33 15.5 33C10.8056 33 7 29.1944 7 24.5C7 19.8056 10.8056 16 15.5 16C20.1944 16 24 19.8056 24 24.5ZM11 42H4V44H11V42Z" fill="#141414"/>
</svg>
