<svg width="222" height="38" viewBox="0 0 222 38" fill="none" xmlns="http://www.w3.org/2000/svg">
<path d="M36.3643 1.53271C36.743 1.53271 37.07 1.66992 37.3454 1.94433C37.6208 2.21874 37.7585 2.5446 37.7585 2.92192V36.1599C37.7585 36.5372 37.6208 36.8631 37.3454 37.1375C37.07 37.4119 36.743 37.5491 36.3643 37.5491H25.7272C25.3486 37.5491 25.0215 37.4119 24.7462 37.1375C24.4708 36.8631 24.3331 36.5372 24.3331 36.1599V25.2006H14.0058V36.1599C14.0058 36.5372 13.8681 36.8631 13.5927 37.1375C13.3173 37.4119 12.9903 37.5491 12.6116 37.5491H1.9745C1.59584 37.5491 1.26881 37.429 0.993414 37.1889C0.718019 36.9145 0.580322 36.5715 0.580322 36.1599V2.92192C0.580322 2.5446 0.718019 2.21874 0.993414 1.94433C1.26881 1.66992 1.59584 1.53271 1.9745 1.53271H12.6116C12.9903 1.53271 13.3173 1.66992 13.5927 1.94433C13.8681 2.21874 14.0058 2.5446 14.0058 2.92192V13.4696H24.3331V2.92192C24.3331 2.5446 24.4708 2.21874 24.7462 1.94433C25.0215 1.66992 25.3486 1.53271 25.7272 1.53271H36.3643Z" fill="black"/>
<path d="M81.2503 35.7992C80.8006 36.9655 80.0222 37.5486 78.9152 37.5486H69.1075C68.7961 37.5486 68.5193 37.4457 68.2772 37.2399C68.0696 36.9998 67.9658 36.7254 67.9658 36.4167L68.0177 36.1079L79.3303 3.23014C79.4687 2.78423 79.7282 2.38976 80.1087 2.04675C80.4892 1.70373 81.0082 1.53223 81.6655 1.53223H96.0916C96.7489 1.53223 97.2679 1.70373 97.6484 2.04675C98.029 2.38976 98.2884 2.78423 98.4268 3.23014L109.739 36.1079L109.791 36.4167C109.791 36.7254 109.67 36.9998 109.428 37.2399C109.22 37.4457 108.961 37.5486 108.65 37.5486H98.8419C97.7349 37.5486 96.9565 36.9655 96.5068 35.7992L95.2095 32.1976H82.5477L81.2503 35.7992ZM88.8786 11.4625L85.1942 22.1645H92.5629L88.8786 11.4625Z" fill="black"/>
<path d="M143.254 1.53223C143.632 1.53223 143.959 1.66943 144.234 1.94384C144.508 2.21825 144.646 2.54412 144.646 2.92143V11.2052C144.646 11.5825 144.508 11.9084 144.234 12.1828C143.959 12.4572 143.632 12.5944 143.254 12.5944H132.175V36.1594C132.175 36.5367 132.038 36.8626 131.763 37.137C131.488 37.4114 131.162 37.5486 130.784 37.5486H120.168C119.79 37.5486 119.464 37.4114 119.189 37.137C118.914 36.8626 118.777 36.5367 118.777 36.1594V12.5944H107.697C107.319 12.5944 106.993 12.4572 106.718 12.1828C106.443 11.9084 106.306 11.5825 106.306 11.2052V2.92143C106.306 2.54412 106.443 2.21825 106.718 1.94384C106.993 1.66943 107.319 1.53223 107.697 1.53223H143.254Z" fill="black"/>
<path d="M181.614 27.5155C181.987 27.5155 182.308 27.6527 182.579 27.9271C182.85 28.2015 182.986 28.5274 182.986 28.9047V36.1594C182.986 36.5367 182.85 36.8626 182.579 37.137C182.308 37.4114 181.987 37.5486 181.614 37.5486H149.503C149.13 37.5486 148.809 37.4114 148.538 37.137C148.267 36.8626 148.131 36.5367 148.131 36.1594V2.92143C148.131 2.54412 148.267 2.21825 148.538 1.94384C148.809 1.66943 149.13 1.53223 149.503 1.53223H181.106C181.478 1.53223 181.8 1.66943 182.071 1.94384C182.342 2.21825 182.478 2.54412 182.478 2.92143V10.1762C182.478 10.5535 182.342 10.8793 182.071 11.1537C181.8 11.4282 181.478 11.5654 181.106 11.5654H161.341V14.8068H178.311C178.684 14.8068 179.006 14.944 179.277 15.2184C179.548 15.4929 179.683 15.8187 179.683 16.196V22.8848C179.683 23.2621 179.548 23.588 179.277 23.8624C179.006 24.1368 178.684 24.274 178.311 24.274H161.341V27.5155H181.614Z" fill="black"/>
<path d="M64.2246 27.5155C64.6096 27.5155 64.9421 27.6527 65.2222 27.9271C65.5022 28.2015 65.6422 28.5274 65.6422 28.9047V36.1594C65.6422 36.5367 65.5022 36.8626 65.2222 37.137C64.9421 37.4114 64.6096 37.5486 64.2246 37.5486H31.0433C30.6583 37.5486 30.3258 37.4114 30.0458 37.137C29.7658 36.8626 29.6258 36.5367 29.6258 36.1594V2.92143C29.6258 2.54412 29.7658 2.21825 30.0458 1.94384C30.3258 1.66943 30.6583 1.53223 31.0433 1.53223H63.6996C64.0846 1.53223 64.4171 1.66943 64.6971 1.94384C64.9771 2.21825 65.1171 2.54412 65.1171 2.92143V10.1762C65.1171 10.5535 64.9771 10.8793 64.6971 11.1537C64.4171 11.4282 64.0846 11.5654 63.6996 11.5654H43.2763V14.8068H60.812C61.197 14.8068 61.5295 14.944 61.8095 15.2184C62.0895 15.4929 62.2295 15.8187 62.2295 16.196V22.8848C62.2295 23.2621 62.0895 23.588 61.8095 23.8624C61.5295 24.1368 61.197 24.274 60.812 24.274H43.2763V27.5155H64.2246Z" fill="black"/>
<path d="M189.428 0.951172H204.486C209.574 0.951172 213.757 2.22336 217.033 4.76775C220.344 7.27727 222 10.7976 222 15.3287V23.1187C222 27.8589 220.397 31.4489 217.19 33.8887C213.983 36.3285 209.766 37.5485 204.538 37.5485H189.428C189.045 37.5485 188.714 37.409 188.435 37.1302C188.156 36.8514 188.017 36.5202 188.017 36.1368V2.36278C188.017 1.97938 188.156 1.64826 188.435 1.36943C188.714 1.09059 189.045 0.951172 189.428 0.951172ZM201.087 11.1461V27.3535H204.486C205.671 27.3535 206.612 27.005 207.309 26.3079C208.041 25.5759 208.407 24.5129 208.407 23.1187V15.3287C208.407 12.5403 207.1 11.1461 204.486 11.1461H201.087Z" fill="black"/>
</svg>