<svg width="160" height="43" viewBox="0 0 160 43" fill="none" xmlns="http://www.w3.org/2000/svg">
<path fill-rule="evenodd" clip-rule="evenodd" d="M28.5106 10.4681C28.5958 10.8936 28.7659 11.2341 29.1064 11.4894V11.4892C32.0852 13.6168 34.0425 17.1062 33.9575 21.1062C33.9575 27.4892 28.7659 32.6807 22.383 32.6807C21.9802 32.679 21.581 32.7571 21.2085 32.9104C20.836 33.0638 20.4976 33.2894 20.2128 33.5743C19.9279 33.8591 19.7023 34.1976 19.5489 34.57C19.3956 34.9425 19.3175 35.3417 19.3192 35.7445V40.3405C19.3192 41.2766 19.2341 42.1277 18.9787 42.383C18.4681 42.8936 15.4894 42.8936 14.9787 42.383C14.7234 42.1277 14.6383 41.1914 14.6383 40.3405V35.8299C14.6383 31.4894 18.1277 27.9148 22.4682 27.9148C26.2128 27.9148 29.2766 24.8509 29.2766 21.1064C29.2766 19.3192 28.5958 17.7022 27.4894 16.5106C26.9788 16 26.4681 15.4894 25.7872 15.1489C24.5958 14.383 23.8298 13.1064 23.8298 11.6595C23.8298 10.8936 23.7447 10.2128 23.4894 9.53193C22.6382 6.80857 20 4.85109 17.0213 4.85109C14.0425 4.85109 11.4042 6.80857 10.5531 9.53193C10.2978 10.2128 10.2128 10.8936 10.2128 11.6595C10.2128 13.1064 9.53177 14.4682 8.25529 15.1489C7.6595 15.4894 7.06386 16 6.55327 16.5106C5.44689 17.7872 4.76589 19.319 4.76589 21.1064C4.76589 24.2553 6.89361 26.8936 9.78723 27.6595C10.6383 27.8299 11.4894 28.1702 11.6595 28.5106C12 29.1064 11.2341 32 10.6383 32.3405C10.2978 32.5106 9.44689 32.4255 8.5958 32.1701C3.65966 30.8936 0 26.383 0 21.0213C0 17.1064 1.95748 13.617 4.93614 11.5745C5.27664 11.3192 5.53193 10.9787 5.53193 10.5531C6.04252 4.5958 10.9787 0 17.0213 0C23.0639 0 28 4.5958 28.5106 10.4681ZM76.7659 30.2127H80.2553H80.3405V17.1064H76.8511V22.9786C76.8511 26.0425 75.7447 27.5744 73.5319 27.5744C72.6808 27.5744 72.085 27.3191 71.5745 26.7233C71.0639 26.1277 70.8086 25.3617 70.8086 24.4255V17.0213H67.3192V25.1064C67.3192 26.7233 67.8297 28.085 68.7659 29.1064C69.7022 30.1277 70.9787 30.6383 72.5958 30.6383C74.2978 30.6383 75.6595 30.1277 76.7659 29.0212V30.2127ZM104.851 21.9575C104.851 20.3405 104.34 19.0638 103.319 18.0425V18.0427C102.298 17.0215 101.106 16.5107 99.6597 16.5107C97.617 16.5107 96 17.2768 94.8084 18.7235C93.8723 17.2768 92.4255 16.5107 90.4681 16.5107C88.7659 16.5107 87.4894 17.0215 86.4681 18.0427V16.9363H82.9787V30.298H86.4681V23.9151C86.4681 22.5533 86.7234 21.5319 87.2341 20.8512C87.7447 20.1704 88.5106 19.8299 89.4469 19.8299C90.2128 19.8299 90.8086 20.0852 91.3192 20.5959C91.8298 21.1916 92.085 21.8724 92.085 22.7235V30.298H95.5744V23.9151C95.5744 22.5533 95.915 21.5319 96.4255 20.8512C97.0213 20.1704 97.7872 19.8299 98.7235 19.8299C99.4894 19.8299 100.085 20.0852 100.596 20.5959C101.106 21.1916 101.362 21.8724 101.362 22.7235V30.2978H104.851V21.9575ZM114.809 30.6383C115.915 30.6383 117.106 30.2978 118.298 29.617L117.277 26.6383C116.511 27.0638 115.745 27.3191 115.064 27.3191C113.787 27.3191 113.106 26.5531 113.106 25.0213V19.7447H117.447V16.8511H113.106V12.8511H109.617V16.8511H106.723V19.7447H109.617V25.2766C109.617 27.0638 110.043 28.4255 110.979 29.2766C111.915 30.2127 113.191 30.6383 114.809 30.6383ZM129.702 20.2553L129.872 16.8511C129.702 16.7659 129.362 16.7659 128.936 16.7659C126.979 16.7659 125.362 17.7022 124.17 19.4042V16.9361H120.681V30.2127H124.17V25.9575C124.17 22.1275 125.787 20.2553 128.936 20.2553H129.702ZM134.298 24.5106H144.426V23.2339C144.34 21.1914 143.66 19.5744 142.383 18.2978C141.106 17.0213 139.489 16.4255 137.702 16.4255C135.745 16.4255 134.128 17.0213 132.766 18.383C131.489 19.7447 130.809 21.4469 130.809 23.4894C130.809 25.617 131.489 27.3191 132.766 28.5958C134.043 29.8724 135.659 30.5531 137.617 30.5531C139.064 30.5531 140.426 30.2127 141.532 29.5319C142.638 28.8511 143.489 27.8297 144.085 26.468L140.936 25.7872C140.255 26.9786 139.149 27.5744 137.617 27.5744C136.851 27.5744 136.085 27.3191 135.489 26.7233C134.894 26.2127 134.468 25.4469 134.298 24.5106ZM134.383 22.0427C134.638 21.2766 135.064 20.6808 135.66 20.2553C136.255 19.8297 136.936 19.5744 137.702 19.5744C138.468 19.5744 139.064 19.7447 139.66 20.1702C140.255 20.5958 140.596 21.1914 140.851 22.0427H134.383ZM149.872 24.5106H160V23.2339C159.915 21.1914 159.234 19.5744 157.957 18.2978C156.681 17.0213 155.064 16.4255 153.277 16.4255C151.319 16.4255 149.702 17.0213 148.34 18.383C147.064 19.7447 146.383 21.4469 146.383 23.4894C146.383 25.617 147.064 27.3191 148.34 28.5958C149.617 29.8724 151.234 30.5531 153.191 30.5531C154.638 30.5531 156 30.2127 157.106 29.5319C158.213 28.8511 159.064 27.8297 159.659 26.468L156.511 25.7872C155.83 26.9786 154.723 27.5744 153.191 27.5744C152.426 27.5744 151.66 27.3191 151.064 26.7233C150.468 26.2127 150.043 25.4469 149.872 24.5106ZM149.957 22.0427C150.213 21.2766 150.638 20.6808 151.234 20.2553C151.83 19.8297 152.511 19.5744 153.277 19.5744C154.043 19.5744 154.638 19.7447 155.234 20.1702C155.83 20.5958 156.17 21.1914 156.426 22.0427H149.957ZM54.9787 23.1489V19.8297H64.3405C64.4255 20.4255 64.4255 20.936 64.4255 21.3615V21.3617C64.4255 24 63.5745 26.2127 61.8723 28C60.1702 29.7872 58.0425 30.6383 55.4044 30.6383C52.7659 30.6383 50.5531 29.7022 48.6808 27.9149C46.8936 26.1277 45.9575 23.9149 45.9575 21.2766C45.9575 18.7233 46.9787 16.5107 48.7659 14.7233C50.5531 12.9361 52.7659 12 55.4042 12C57.3617 12 59.1489 12.4255 60.6808 13.3617C61.8723 14.0425 62.7235 14.9786 63.4042 16.085L60.4255 18.0425C59.3192 16.2553 57.617 15.4042 55.3192 15.4042C53.7022 15.4042 52.3405 16 51.2341 17.1064C50.1277 18.2978 49.617 19.6595 49.617 21.3617C49.617 23.0638 50.2128 24.5106 51.319 25.617C52.5106 26.7233 53.8723 27.3191 55.5745 27.3191C56.9361 27.3191 58.1277 26.9786 59.0639 26.2127C60 25.4469 60.5958 24.4254 60.9361 23.1489H54.9787Z" fill="#141414"/>
</svg>
