<svg width="58" height="48" viewBox="0 0 58 48" fill="none" xmlns="http://www.w3.org/2000/svg">
<path fill-rule="evenodd" clip-rule="evenodd" d="M46.7359 16.8H56.6135C57.2787 16.8 57.8181 17.3372 57.8182 18V20.4C57.8182 21.0627 57.2788 21.6 56.6136 21.6H55.0853L47.7218 44.6543C47.082 46.6559 45.2374 48 43.1307 48H14.6875C12.5807 48 10.7363 46.6559 10.0964 44.6555L2.73281 21.6H1.20458C0.539334 21.6 0 21.0627 0 20.4V18C0 17.3372 0.539334 16.8 1.20458 16.8H11.0822L22.3169 0.520358C22.6936 -0.0257158 23.4435 -0.164203 23.9917 0.211096L25.9775 1.57066C26.5258 1.94607 26.6647 2.69318 26.2879 3.23937L16.9296 16.8H40.8884L31.5302 3.23937C31.1533 2.69318 31.2923 1.94607 31.8406 1.57066L33.8263 0.211096C34.3744 -0.164203 35.1244 -0.0257158 35.5011 0.520358L46.7359 16.8ZM22.8295 41.3029L32.6222 29.1094L31.417 34.0524L33.7649 35.6148L39.0724 31.6988L37.2913 29.2848L35.3111 30.7458L37.1352 23.2644L34.5084 21.9698L25.8302 32.7756L27.2852 28.5054L24.9582 26.827L16.5475 33.2131L18.3616 35.6024L22.8619 32.1855L20.2401 39.8799L22.8295 41.3029Z" fill="#141414"/>
</svg>
