<svg width="221" height="127" viewBox="0 0 221 127" fill="none" xmlns="http://www.w3.org/2000/svg">
<path d="M14.2069 97.3106C14.1849 97.2447 14.2508 97.08 14.4045 96.8165C14.5582 96.531 14.7229 96.1907 14.8986 95.7954C15.0962 95.3782 15.2828 94.917 15.4585 94.412C15.6561 93.885 15.7879 93.347 15.8538 92.798C15.9416 92.249 15.9416 91.7001 15.8538 91.1511C15.7659 90.6021 15.5354 90.0751 15.1621 89.5701C14.9425 89.3066 14.6131 89.1638 14.1739 89.1419C13.7567 89.0979 13.2736 89.1638 12.7246 89.3395C12.1976 89.4932 11.6377 89.7457 11.0448 90.0971C10.4738 90.4265 9.94683 90.8217 9.46374 91.2828C8.98065 91.722 8.56343 92.2161 8.21209 92.7651C7.8827 93.314 7.69605 93.874 7.65213 94.4449C7.60822 94.9061 7.6192 95.3343 7.68507 95.7295C7.77291 96.1248 7.8827 96.4871 8.01446 96.8165C8.14621 97.1459 8.28894 97.4533 8.44265 97.7388C8.59636 98.0242 8.7391 98.2767 8.87085 98.4963C9.04652 98.8038 9.32101 99.1441 9.69431 99.5174C10.0676 99.8907 10.4738 100.319 10.913 100.802C11.3522 101.263 11.7914 101.79 12.2306 102.383C12.6697 102.976 13.054 103.646 13.3834 104.392C13.7128 105.139 13.9433 105.973 14.0751 106.896C14.2069 107.818 14.1959 108.839 14.0422 109.959C13.8006 111.584 13.4163 112.934 12.8893 114.01C12.3623 115.108 11.7804 115.987 11.1436 116.645C10.5287 117.304 9.90292 117.776 9.26611 118.062C8.6293 118.369 8.10229 118.567 7.68507 118.655C7.35569 118.72 6.96043 118.775 6.49929 118.819C6.06012 118.885 5.588 118.874 5.08295 118.786C4.59985 118.72 4.10578 118.567 3.60073 118.325C3.09567 118.106 2.64552 117.754 2.25026 117.271C1.78912 116.722 1.4268 116.129 1.16329 115.492C0.921745 114.944 0.746074 114.307 0.63628 113.582C0.504527 112.879 0.559424 112.144 0.800971 111.375C0.976642 111.178 1.16329 111.002 1.36092 110.848C1.55855 110.694 1.75618 110.563 1.95381 110.453C2.1734 110.321 2.40397 110.2 2.64552 110.091C2.93098 110.003 3.21645 109.926 3.50191 109.86C3.74346 109.816 3.99598 109.794 4.25949 109.794C4.54496 109.772 4.80846 109.805 5.05001 109.893C4.72063 110.266 4.49006 110.618 4.35831 110.947C4.27047 111.123 4.20459 111.276 4.16068 111.408C4.07284 111.825 4.0399 112.319 4.06186 112.89C4.10578 113.483 4.22655 114.043 4.42418 114.57C4.64377 115.119 4.9512 115.58 5.34645 115.954C5.74171 116.349 6.26873 116.557 6.92749 116.579C8.53049 116.623 9.89194 115.372 11.0118 112.824C11.3851 112.034 11.5718 111.232 11.5718 110.42C11.5937 109.608 11.4949 108.828 11.2753 108.081C11.0777 107.335 10.8032 106.643 10.4519 106.006C10.1225 105.347 9.78214 104.788 9.4308 104.326C9.07946 103.865 8.65126 103.371 8.14621 102.844C7.66311 102.295 7.18002 101.702 6.69692 101.066C6.21383 100.429 5.77465 99.737 5.37939 98.9904C5.00609 98.2438 4.75357 97.4313 4.62181 96.553C4.44614 95.3233 4.55594 94.2034 4.9512 93.1933C5.36841 92.1612 5.91738 91.2609 6.59811 90.4923C7.30079 89.7238 8.05837 89.0979 8.87085 88.6148C9.70529 88.1318 10.4409 87.8243 11.0777 87.6926C14.6131 86.9899 16.9298 87.5828 18.0277 89.4712C18.4888 90.1959 18.7414 90.9644 18.7853 91.7769C18.8292 92.5894 18.7743 93.347 18.6206 94.0497C18.4888 94.7304 18.3132 95.3123 18.0936 95.7954C17.8959 96.2565 17.7642 96.5091 17.6983 96.553C17.5666 96.6847 17.3579 96.8275 17.0725 96.9812C16.787 97.1349 16.3259 97.2776 15.6891 97.4094C15.5134 97.4533 15.3377 97.4752 15.1621 97.4752C15.0084 97.4752 14.8437 97.4643 14.668 97.4423C14.4923 97.4203 14.3386 97.3764 14.2069 97.3106Z" fill="black"/>
<path d="M30.2807 104.096C30.3686 103.964 30.4784 103.887 30.6101 103.865C30.7638 103.821 30.8846 103.832 30.9724 103.898C31.0603 103.964 31.1042 104.074 31.1042 104.228C31.1262 104.381 31.0713 104.59 30.9395 104.853C30.5003 105.688 29.9184 106.588 29.1938 107.554C28.4911 108.521 27.7445 109.432 26.954 110.288C26.1635 111.123 25.3949 111.814 24.6483 112.363C23.9017 112.912 23.2759 113.187 22.7708 113.187C22.0462 113.187 21.4423 113.044 20.9592 112.759C20.4761 112.473 20.0918 112.122 19.8064 111.705C19.5429 111.287 19.3562 110.837 19.2464 110.354C19.1366 109.849 19.1037 109.388 19.1476 108.971C19.1696 108.619 19.2464 107.994 19.3782 107.093C19.5099 106.171 19.6856 105.117 19.9052 103.931C20.1248 102.723 20.3663 101.439 20.6298 100.077C20.9153 98.694 21.2117 97.3655 21.5192 96.0918C21.1459 96.1358 20.7726 96.1797 20.3993 96.2236C20.0259 96.2675 19.6856 96.2895 19.3782 96.2895C18.6755 96.2895 18.0167 96.2126 17.4019 96.0589C16.7651 95.8832 16.2929 95.7185 15.9855 95.5648C15.8098 95.477 15.733 95.3562 15.755 95.2025C15.7769 95.0268 15.8428 94.8621 15.9526 94.7084C16.0624 94.5328 16.2051 94.39 16.3808 94.2802C16.5345 94.1485 16.6772 94.0826 16.809 94.0826C17.2262 94.1265 17.6764 94.1704 18.1594 94.2144C18.6425 94.2363 19.1696 94.2363 19.7405 94.2144C20.1577 94.1924 20.553 94.1595 20.9263 94.1155C21.3215 94.0716 21.7058 94.0167 22.0791 93.9508C22.3646 92.8968 22.6391 91.9855 22.9026 91.217C23.188 90.4265 23.4406 89.8775 23.6601 89.5701C23.726 89.4603 23.8687 89.3724 24.0883 89.3066C24.3299 89.2187 24.5824 89.1638 24.8459 89.1419C25.1094 89.0979 25.362 89.0979 25.6035 89.1419C25.845 89.1638 26.0207 89.2407 26.1305 89.3724C26.2403 89.5481 26.2842 89.9983 26.2623 90.7229C26.2403 91.4475 26.1195 92.3698 25.8999 93.4897C26.8222 93.4897 27.6347 93.5446 28.3374 93.6544C29.062 93.7422 29.6769 93.852 30.1819 93.9838C30.687 94.0936 31.0932 94.2144 31.4006 94.3461C31.7081 94.4559 31.9386 94.5328 32.0923 94.5767C32.2461 94.6206 32.3229 94.7304 32.3229 94.9061C32.3449 95.0817 32.3119 95.2684 32.2241 95.466C32.1582 95.6417 32.0374 95.7954 31.8618 95.9271C31.6861 96.0589 31.4885 96.1028 31.2689 96.0589C31.0493 96.0369 30.7968 95.993 30.5113 95.9271C30.2478 95.8613 29.9184 95.8064 29.5232 95.7625C29.1499 95.7185 28.6997 95.6746 28.1727 95.6307C27.6457 95.5868 27.0308 95.5648 26.3281 95.5648C26.1964 95.5648 26.0427 95.5758 25.867 95.5978C25.7133 95.5978 25.5486 95.5978 25.3729 95.5978C25.2851 95.9491 25.1973 96.3004 25.1094 96.6518C25.0435 96.9812 24.9447 97.3325 24.813 97.7058C24.5275 98.5842 24.1981 99.5394 23.8248 100.571C23.4954 101.472 23.1002 102.504 22.6391 103.668C22.1779 104.831 21.6619 106.072 21.091 107.39C20.9592 108.334 20.9702 109.059 21.1239 109.564C21.2996 110.047 21.5082 110.398 21.7497 110.618C22.0352 110.859 22.3865 110.991 22.8037 111.013C23.1331 111.057 23.5284 110.947 23.9895 110.683C24.4726 110.398 24.9667 110.025 25.4717 109.564C25.9768 109.102 26.4819 108.597 26.9869 108.048C27.5139 107.499 27.997 106.961 28.4362 106.434C28.8754 105.907 29.2596 105.435 29.589 105.018C29.9184 104.579 30.149 104.272 30.2807 104.096Z" fill="black"/>
<path d="M36.9672 100.308C37.2527 100.088 37.5272 99.9237 37.7907 99.8139C38.0761 99.6821 38.3287 99.5943 38.5482 99.5504C38.7898 99.4845 39.0313 99.4625 39.2729 99.4845C39.8658 99.5284 40.2281 99.715 40.3599 100.044C40.5136 100.374 40.5355 100.901 40.4257 101.625C40.3599 101.999 40.2281 102.471 40.0305 103.042C39.8328 103.613 39.6023 104.315 39.3388 105.15C39.0753 105.962 38.7898 106.896 38.4824 107.95C38.1969 109.004 37.9224 110.189 37.6589 111.507C37.3954 112.583 37.1099 113.824 36.8025 115.229C36.539 116.459 36.2206 117.941 35.8473 119.676C35.496 121.41 35.1117 123.398 34.6945 125.637C34.5847 126.186 34.3431 126.505 33.9698 126.593C33.6185 126.681 33.2452 126.637 32.8499 126.461C32.6962 126.373 32.5535 126.274 32.4217 126.164C32.3119 126.055 32.1912 125.923 32.0594 125.769C31.9277 125.637 31.8179 125.451 31.73 125.209C32.2351 123.365 32.6743 121.685 33.0476 120.17C33.4428 118.655 33.7942 117.337 34.1016 116.217C34.431 114.922 34.7384 113.758 35.0238 112.726C35.1336 112.265 35.2325 111.814 35.3203 111.375C35.4301 110.914 35.5399 110.464 35.6497 110.025C35.3642 110.486 35.0568 110.925 34.7274 111.342C34.398 111.759 34.0357 112.122 33.6404 112.429C33.2452 112.737 32.817 112.967 32.3558 113.121C31.9167 113.297 31.4555 113.351 30.9724 113.286C29.7867 113.132 28.9412 112.693 28.4362 111.968C27.9531 111.243 27.7445 110.299 27.8104 109.135C27.8323 108.674 27.8982 108.169 28.008 107.62C28.1178 107.071 28.2386 106.544 28.3703 106.039C28.5021 105.534 28.6228 105.084 28.7326 104.689C28.8644 104.272 28.9632 103.975 29.0291 103.799C29.2926 102.965 29.4792 102.251 29.589 101.658C29.7208 101.066 29.6329 100.571 29.3255 100.176C29.6329 99.9786 29.9184 99.8468 30.1819 99.7809C30.4674 99.6931 30.7199 99.6272 30.9395 99.5833C31.181 99.5613 31.4226 99.5613 31.6641 99.5833C32.257 99.6711 32.5974 99.8907 32.6852 100.242C32.795 100.593 32.7621 101.12 32.5864 101.823C32.4986 102.196 32.3558 102.679 32.1582 103.272C31.9606 103.843 31.752 104.436 31.5324 105.051C31.3128 105.666 31.1152 106.237 30.9395 106.764C30.7638 107.269 30.665 107.631 30.6431 107.851C30.4454 108.839 30.4344 109.608 30.6101 110.156C30.7858 110.683 31.1701 110.947 31.763 110.947C32.0484 110.947 32.3668 110.826 32.7182 110.585C33.0695 110.321 33.4209 109.981 33.7722 109.564C34.1455 109.146 34.5078 108.674 34.8592 108.147C35.2105 107.598 35.5289 107.049 35.8144 106.5C36.1218 105.951 36.3853 105.413 36.6049 104.886C36.8464 104.359 37.0221 103.887 37.1319 103.47C37.2856 102.658 37.3844 102.021 37.4283 101.56C37.4723 101.098 37.3186 100.681 36.9672 100.308Z" fill="black"/>
<path d="M41.5127 111.902C42.4789 107.84 43.2474 104.579 43.8184 102.12C44.4113 99.6602 44.8614 97.7827 45.1688 96.4871C45.5202 94.95 45.7617 93.885 45.8935 93.2921C45.9594 92.8749 46.0143 92.4686 46.0582 92.0734C46.1021 91.722 46.1241 91.3597 46.1241 90.9864C46.1241 90.6131 46.0911 90.2727 46.0252 89.9653C46.2009 89.8555 46.3876 89.7677 46.5852 89.7018C46.8048 89.6359 47.0134 89.581 47.211 89.5371C47.4526 89.4712 47.6941 89.4163 47.9357 89.3724C48.1772 89.3285 48.3968 89.3066 48.5944 89.3066C48.7701 89.3066 48.9348 89.3285 49.0885 89.3724C49.2422 89.3944 49.341 89.4603 49.3849 89.5701C49.5167 89.6799 49.5716 89.8994 49.5496 90.2288C49.5496 90.5582 49.5277 90.8986 49.4838 91.2499C49.3959 91.6671 49.2971 92.1173 49.1873 92.6004C48.9238 93.5446 48.5615 94.9061 48.1003 96.6847C47.7051 98.1999 47.1671 100.264 46.4864 102.877C45.8276 105.49 44.9932 108.784 43.9831 112.759C43.8733 112.868 43.7415 112.945 43.5878 112.989C43.4341 113.033 43.2914 113.055 43.1596 113.055C43.0059 113.055 42.8412 113.044 42.6655 113.022C42.5118 112.978 42.3581 112.912 42.2044 112.824C42.0726 112.737 41.9409 112.616 41.8091 112.462C41.6774 112.33 41.5786 112.144 41.5127 111.902Z" fill="black"/>
<path d="M53.4693 112.956C52.6349 112.956 51.9541 112.824 51.4271 112.561C50.9001 112.297 50.4829 111.979 50.1755 111.606C49.89 111.211 49.6814 110.793 49.5496 110.354C49.4398 109.893 49.3849 109.476 49.3849 109.102C49.3849 108.444 49.4398 107.752 49.5496 107.027C49.6594 106.281 49.7912 105.6 49.9449 104.985C50.0986 104.348 50.2304 103.81 50.3402 103.371C50.4719 102.932 50.5597 102.658 50.6037 102.548C50.8013 101.911 51.0538 101.362 51.3612 100.901C51.6906 100.418 52.1408 100.088 52.7117 99.9127C52.9313 99.8688 53.1619 99.8248 53.4034 99.7809C53.601 99.759 53.7987 99.748 53.9963 99.748C54.2159 99.748 54.4135 99.7809 54.5892 99.8468C53.9963 101.362 53.5242 102.625 53.1728 103.635C52.8435 104.645 52.5909 105.468 52.4153 106.105C52.2176 106.83 52.0969 107.412 52.0529 107.851C51.9431 108.839 52.031 109.586 52.3165 110.091C52.6019 110.596 53.1838 110.848 54.0622 110.848C54.6331 110.848 55.1821 110.64 55.7091 110.222C56.2361 109.783 56.7192 109.223 57.1584 108.543C57.0925 108.191 57.0596 107.829 57.0596 107.456C57.0596 106.753 57.1145 106.072 57.2243 105.413C57.356 104.733 57.4987 104.107 57.6525 103.536C57.8281 102.943 58.0038 102.416 58.1795 101.955C58.3771 101.494 58.5418 101.131 58.6735 100.868C58.9151 100.341 59.1347 100.022 59.3323 99.9127C59.5299 99.7809 59.8483 99.7041 60.2875 99.6821C60.4632 99.6602 60.6059 99.6602 60.7157 99.6821C60.8475 99.6821 60.9573 99.6931 61.0451 99.715C61.3086 99.7809 61.4404 99.9127 61.4404 100.11C61.4404 100.462 61.4184 100.989 61.3745 101.691C61.3306 102.394 61.1988 103.119 60.9792 103.865C60.8255 104.48 60.6718 105.007 60.5181 105.446C60.3863 105.864 60.2546 106.226 60.1228 106.533C59.9911 106.819 59.8593 107.06 59.7276 107.258C59.5958 107.434 59.475 107.598 59.3652 107.752C59.4092 108.411 59.4641 108.938 59.5299 109.333C59.5958 109.728 59.6727 110.036 59.7605 110.255C59.8703 110.453 59.9911 110.596 60.1228 110.683C60.2765 110.749 60.4412 110.782 60.6169 110.782C60.9243 110.782 61.2866 110.64 61.7039 110.354C62.1211 110.047 62.5493 109.673 62.9885 109.234C63.4496 108.773 63.8997 108.279 64.3389 107.752C64.8001 107.203 65.2173 106.687 65.5906 106.204C65.9639 105.721 66.2823 105.304 66.5458 104.952C66.8093 104.579 66.974 104.348 67.0399 104.261C67.1936 104.063 67.3363 103.942 67.4681 103.898C67.6218 103.854 67.7425 103.876 67.8304 103.964C67.9182 104.03 67.9621 104.151 67.9621 104.326C67.9841 104.48 67.9402 104.656 67.8304 104.853C67.3912 105.688 66.8422 106.577 66.1835 107.521C65.5467 108.444 64.855 109.3 64.1084 110.091C63.3837 110.881 62.6481 111.54 61.9015 112.067C61.1549 112.594 60.4522 112.857 59.7934 112.857C59.2006 112.857 58.7284 112.66 58.3771 112.265C58.0477 111.847 57.7622 111.254 57.5207 110.486C57.0156 111.276 56.4228 111.891 55.742 112.33C55.0613 112.748 54.3037 112.956 53.4693 112.956Z" fill="black"/>
<path d="M69.8396 111.309C69.9714 111.397 70.1361 111.441 70.3337 111.441C70.5533 111.441 70.7619 111.397 70.9595 111.309C71.1791 111.221 71.3767 111.101 71.5524 110.947C71.75 110.793 71.8928 110.596 71.9806 110.354C72.0684 110.113 72.0684 109.772 71.9806 109.333C71.8928 108.872 71.75 108.389 71.5524 107.884C71.3767 107.357 71.1791 106.83 70.9595 106.303C70.7399 105.776 70.5533 105.293 70.3996 104.853C70.2678 104.524 70.158 104.217 70.0702 103.931C69.9824 103.69 69.8945 103.459 69.8067 103.239C69.7408 102.998 69.6859 102.833 69.642 102.745C69.5322 102.921 69.3346 103.207 69.0491 103.602C68.7856 103.997 68.4892 104.414 68.1598 104.853C67.8523 105.271 67.5559 105.666 67.2704 106.039C66.985 106.391 66.7873 106.632 66.6775 106.764C66.5019 106.961 66.3262 107.082 66.1505 107.126C65.9968 107.148 65.8651 107.115 65.7553 107.027C65.6455 106.918 65.5796 106.775 65.5576 106.599C65.5576 106.402 65.6455 106.171 65.8211 105.907C65.9529 105.732 66.1505 105.457 66.414 105.084C66.6775 104.689 66.941 104.293 67.2046 103.898C67.4681 103.481 67.7096 103.119 67.9292 102.811C68.1488 102.482 68.2696 102.284 68.2915 102.218C68.3354 102.043 68.2696 101.812 68.0939 101.527C67.9402 101.241 67.9182 100.912 68.028 100.539C68.1158 100.231 68.3135 99.8797 68.6209 99.4845C68.9283 99.0673 69.2906 98.694 69.7079 98.3646C70.1251 98.0352 70.5533 97.7936 70.9925 97.6399C71.4316 97.4643 71.8269 97.4643 72.1782 97.6399C72.4637 97.8156 72.6943 98.0132 72.8699 98.2328C73.0456 98.4305 73.1115 98.6391 73.0676 98.8587C73.0237 98.9684 72.9578 99.1112 72.8699 99.2869C72.7821 99.4625 72.6504 99.6821 72.4747 99.9456C72.299 100.187 72.0465 100.506 71.7171 100.901C71.783 101.406 71.8708 101.867 71.9806 102.284C72.1124 102.701 72.2331 103.064 72.3429 103.371C72.4747 103.744 72.6174 104.085 72.7711 104.392C72.9688 104.788 73.1774 105.194 73.3969 105.611C73.6165 106.028 73.8142 106.445 73.9898 106.863C74.1655 107.258 74.3082 107.631 74.418 107.983C74.5278 108.334 74.5608 108.63 74.5169 108.872C74.451 109.245 74.2533 109.695 73.924 110.222C73.6165 110.749 73.2213 111.265 72.7382 111.77C72.2771 112.254 71.7391 112.671 71.1242 113.022C70.5313 113.373 69.9055 113.549 69.2467 113.549C68.7856 113.549 68.3354 113.406 67.8963 113.121C67.479 112.835 67.1167 112.506 66.8093 112.133C66.5238 111.738 66.3042 111.353 66.1505 110.98C66.0188 110.607 66.0078 110.321 66.1176 110.124C66.2493 109.86 66.3701 109.651 66.4799 109.498C66.5897 109.344 66.7544 109.168 66.974 108.971C67.0618 108.905 67.1716 108.828 67.3034 108.74C67.4132 108.674 67.5669 108.608 67.7645 108.543C67.9621 108.477 68.1927 108.4 68.4562 108.312C68.6758 108.993 68.8734 109.531 69.0491 109.926C69.2248 110.299 69.3675 110.596 69.4773 110.815C69.609 111.057 69.7298 111.221 69.8396 111.309Z" fill="black"/>
<path d="M93.5881 118.556C92.4902 118.556 91.4911 118.292 90.5907 117.765C89.7124 117.238 88.9548 116.514 88.318 115.591C87.7031 114.669 87.231 113.593 86.9016 112.363C86.5942 111.112 86.4625 109.783 86.5064 108.378C86.5503 107.06 86.715 105.633 87.0005 104.096C87.3079 102.559 87.7361 101.022 88.2851 99.4845C88.834 97.9254 89.4928 96.4322 90.2614 95.0049C91.0519 93.5556 91.9522 92.282 92.9623 91.184C93.9724 90.0861 95.0923 89.2077 96.322 88.549C97.5517 87.8682 98.9022 87.5279 100.373 87.5279C101.274 87.5279 102.031 87.7145 102.646 88.0878C103.283 88.4392 103.788 88.9113 104.161 89.5042C104.557 90.0971 104.831 90.7668 104.985 91.5134C105.138 92.26 105.204 93.0176 105.182 93.7862C105.138 94.5108 105.029 95.2135 104.853 95.8942C104.699 96.5749 104.469 97.1898 104.161 97.7388C103.876 98.2658 103.514 98.694 103.074 99.0233C102.657 99.3308 102.174 99.4845 101.625 99.4845C101.362 99.4625 101.109 99.3747 100.867 99.221C100.648 99.0892 100.417 98.8916 100.176 98.6281C99.9562 98.3646 99.7476 97.9803 99.5499 97.4752C100.143 97.2337 100.604 96.8165 100.933 96.2236C101.285 95.6087 101.548 94.9719 101.724 94.3132C101.922 93.5666 102.053 92.7321 102.119 91.8099C102.163 90.9095 101.976 90.2508 101.559 89.8336C101.142 89.4163 100.67 89.2077 100.143 89.2077C99.1108 89.2077 98.0238 89.7457 96.882 90.8217C95.7401 91.8977 94.6751 93.358 93.6869 95.2025C92.7207 97.0251 91.8973 99.1551 91.2166 101.593C90.5578 104.03 90.1735 106.61 90.0637 109.333C90.0198 110.563 90.0967 111.606 90.2943 112.462C90.5139 113.319 90.8103 114.021 91.1836 114.57C91.5789 115.119 92.0181 115.514 92.5012 115.756C92.9843 115.998 93.4673 116.118 93.9504 116.118C94.719 116.118 95.4436 115.954 96.1244 115.624C96.8051 115.295 97.4199 114.889 97.9689 114.406C98.5398 113.922 99.0229 113.417 99.4182 112.89C99.8354 112.385 100.154 111.935 100.373 111.54C100.527 111.254 100.692 111.079 100.867 111.013C101.043 110.947 101.197 110.969 101.329 111.079C101.46 111.167 101.548 111.32 101.592 111.54C101.636 111.738 101.592 111.979 101.46 112.265C101.087 113.011 100.626 113.758 100.077 114.504C99.5499 115.251 98.9461 115.921 98.2654 116.514C97.6066 117.128 96.882 117.622 96.0914 117.996C95.3009 118.369 94.4665 118.556 93.5881 118.556Z" fill="black"/>
<path d="M114.767 107.192C114.548 108.026 114.251 108.806 113.878 109.531C113.505 110.255 113.055 110.881 112.528 111.408C112.023 111.935 111.441 112.341 110.782 112.627C110.145 112.934 109.442 113.088 108.674 113.088C107.774 113.088 107.06 112.89 106.533 112.495C106.028 112.122 105.644 111.65 105.38 111.079C105.138 110.508 104.996 109.882 104.952 109.201C104.886 108.521 104.853 107.884 104.853 107.291C104.853 106.874 104.908 106.413 105.018 105.907C105.106 105.402 105.237 104.886 105.413 104.359C105.589 103.832 105.808 103.305 106.072 102.778C106.357 102.251 106.687 101.768 107.06 101.329C107.192 100.956 107.389 100.626 107.653 100.341C107.938 100.055 108.257 99.8248 108.608 99.6492C108.981 99.4515 109.377 99.3088 109.794 99.221C110.211 99.1112 110.617 99.0563 111.012 99.0563C111.078 99.0563 111.133 99.0673 111.177 99.0892C111.243 99.1112 111.309 99.1331 111.375 99.1551C111.66 99.1771 112.012 99.2869 112.429 99.4845C112.868 99.6821 113.285 99.9786 113.68 100.374C114.098 100.769 114.449 101.274 114.734 101.889C115.02 102.482 115.163 103.207 115.163 104.063C115.163 104.239 115.152 104.458 115.13 104.722C115.108 104.963 115.086 105.172 115.064 105.347C115.569 105.15 116.096 104.908 116.645 104.623C117.194 104.337 117.721 104.041 118.226 103.734C118.753 103.404 119.236 103.075 119.675 102.745C120.114 102.416 120.466 102.12 120.729 101.856C120.949 101.658 121.136 101.549 121.289 101.527C121.443 101.505 121.553 101.549 121.619 101.658C121.684 101.768 121.695 101.922 121.652 102.12C121.608 102.317 121.487 102.537 121.289 102.778C121.179 102.91 120.894 103.174 120.433 103.569C119.994 103.964 119.467 104.392 118.852 104.853C118.237 105.315 117.567 105.765 116.843 106.204C116.118 106.643 115.426 106.972 114.767 107.192ZM109.201 102.185C109.135 102.383 109.102 102.592 109.102 102.811C109.102 103.163 109.124 103.536 109.168 103.931C109.212 104.304 109.322 104.645 109.497 104.952C109.673 105.26 109.947 105.523 110.321 105.743C110.716 105.94 111.254 106.039 111.935 106.039C112.045 106.039 112.154 106.039 112.264 106.039C112.374 106.017 112.484 105.995 112.594 105.973C112.659 105.688 112.714 105.435 112.758 105.216C112.824 104.974 112.857 104.766 112.857 104.59C112.901 104.173 112.901 103.744 112.857 103.305C112.813 102.866 112.725 102.471 112.594 102.12C112.484 101.746 112.33 101.45 112.132 101.23C111.957 100.989 111.737 100.868 111.474 100.868C111.056 100.868 110.65 100.989 110.255 101.23C109.882 101.45 109.53 101.768 109.201 102.185ZM107.093 107.983C107.093 108.378 107.115 108.773 107.159 109.168C107.203 109.542 107.29 109.882 107.422 110.189C107.554 110.475 107.73 110.716 107.949 110.914C108.169 111.09 108.454 111.178 108.806 111.178C109.201 111.178 109.563 111.09 109.893 110.914C110.222 110.716 110.518 110.475 110.782 110.189C111.045 109.882 111.276 109.542 111.474 109.168C111.693 108.773 111.88 108.367 112.034 107.95C111.88 107.972 111.726 107.994 111.572 108.015C111.441 108.015 111.287 108.015 111.111 108.015C110.277 108.015 109.552 107.774 108.937 107.291C108.344 106.786 107.883 106.149 107.554 105.38C107.422 105.842 107.312 106.292 107.225 106.731C107.137 107.17 107.093 107.587 107.093 107.983Z" fill="black"/>
<path d="M133.641 110.914C133.641 110.453 133.685 109.926 133.773 109.333C133.883 108.74 134.014 108.136 134.168 107.521C134.322 106.885 134.476 106.27 134.629 105.677C134.783 105.084 134.915 104.557 135.024 104.096C135.156 103.525 135.145 103.086 134.992 102.778C134.838 102.471 134.574 102.317 134.201 102.317C134.025 102.317 133.674 102.471 133.147 102.778C132.642 103.086 132.082 103.624 131.467 104.392C130.874 105.139 130.281 106.16 129.688 107.456C129.118 108.729 128.667 110.354 128.338 112.33C127.921 112.55 127.526 112.693 127.152 112.759C126.955 112.803 126.779 112.835 126.625 112.857C126.186 112.879 125.901 112.803 125.769 112.627C125.637 112.473 125.659 112.078 125.835 111.441C125.923 111.134 126.076 110.64 126.296 109.959C126.537 109.278 126.768 108.543 126.988 107.752C127.207 106.94 127.394 106.138 127.547 105.347C127.723 104.535 127.811 103.832 127.811 103.239C127.811 102.822 127.734 102.537 127.58 102.383C127.449 102.229 127.251 102.152 126.988 102.152C126.79 102.152 126.461 102.262 125.999 102.482C125.538 102.701 125.022 103.13 124.451 103.766C123.88 104.403 123.309 105.293 122.739 106.434C122.19 107.554 121.717 109.015 121.322 110.815V110.749C121.278 110.925 121.234 111.101 121.19 111.276C121.146 111.43 121.114 111.595 121.092 111.77C121.07 111.946 121.037 112.111 120.993 112.265L119.346 112.989C119.236 113.033 119.093 113.066 118.918 113.088C118.764 113.11 118.61 113.077 118.457 112.989C118.325 112.923 118.226 112.77 118.16 112.528C118.094 112.286 118.116 111.924 118.226 111.441L120.301 102.844C120.367 102.559 120.422 102.284 120.466 102.021C120.51 101.779 120.532 101.549 120.532 101.329C120.554 101.087 120.543 100.89 120.499 100.736C120.872 100.56 121.201 100.429 121.487 100.341C121.772 100.253 122.003 100.187 122.179 100.143C122.398 100.077 122.585 100.044 122.739 100.044C123.441 100.044 123.672 100.648 123.43 101.856C123.342 102.207 123.211 102.723 123.035 103.404C123.452 102.877 123.891 102.383 124.352 101.922C124.836 101.439 125.319 101.011 125.802 100.637C126.285 100.264 126.768 99.9676 127.251 99.748C127.756 99.5284 128.25 99.4186 128.733 99.4186C129.107 99.4186 129.414 99.5284 129.656 99.748C129.919 99.9676 130.117 100.264 130.248 100.637C130.402 100.989 130.49 101.417 130.512 101.922C130.534 102.405 130.512 102.91 130.446 103.437C130.797 102.976 131.182 102.515 131.599 102.054C132.038 101.571 132.488 101.142 132.949 100.769C133.432 100.396 133.927 100.088 134.432 99.8468C134.937 99.6053 135.442 99.4845 135.947 99.4845C136.54 99.4845 136.99 99.6602 137.297 100.011C137.627 100.363 137.846 100.813 137.956 101.362C138.088 101.911 138.121 102.504 138.055 103.141C138.011 103.777 137.923 104.392 137.791 104.985L136.671 109.432C136.43 110.53 136.66 111.079 137.363 111.079C137.912 111.079 138.516 110.815 139.175 110.288C139.833 109.761 140.47 109.135 141.085 108.411C141.722 107.686 142.315 106.94 142.864 106.171C143.413 105.402 143.874 104.788 144.247 104.326C144.379 104.173 144.511 104.085 144.642 104.063C144.796 104.041 144.917 104.074 145.005 104.162C145.115 104.228 145.169 104.348 145.169 104.524C145.191 104.7 145.137 104.919 145.005 105.183C144.566 105.951 144.028 106.808 143.391 107.752C142.754 108.674 142.051 109.542 141.283 110.354C140.536 111.167 139.735 111.847 138.878 112.396C138.022 112.945 137.133 113.22 136.21 113.22C135.903 113.22 135.595 113.187 135.288 113.121C135.003 113.055 134.728 112.934 134.465 112.759C134.223 112.583 134.025 112.352 133.872 112.067C133.718 111.759 133.641 111.375 133.641 110.914Z" fill="black"/>
<path d="M157.851 110.914C157.851 110.453 157.895 109.926 157.982 109.333C158.092 108.74 158.224 108.136 158.378 107.521C158.531 106.885 158.685 106.27 158.839 105.677C158.993 105.084 159.124 104.557 159.234 104.096C159.366 103.525 159.355 103.086 159.201 102.778C159.047 102.471 158.784 102.317 158.411 102.317C158.235 102.317 157.884 102.471 157.357 102.778C156.852 103.086 156.292 103.624 155.677 104.392C155.084 105.139 154.491 106.16 153.898 107.456C153.327 108.729 152.877 110.354 152.548 112.33C152.13 112.55 151.735 112.693 151.362 112.759C151.164 112.803 150.989 112.835 150.835 112.857C150.396 112.879 150.11 112.803 149.978 112.627C149.847 112.473 149.869 112.078 150.044 111.441C150.132 111.134 150.286 110.64 150.505 109.959C150.747 109.278 150.978 108.543 151.197 107.752C151.417 106.94 151.603 106.138 151.757 105.347C151.933 104.535 152.021 103.832 152.021 103.239C152.021 102.822 151.944 102.537 151.79 102.383C151.658 102.229 151.461 102.152 151.197 102.152C151 102.152 150.67 102.262 150.209 102.482C149.748 102.701 149.232 103.13 148.661 103.766C148.09 104.403 147.519 105.293 146.948 106.434C146.399 107.554 145.927 109.015 145.532 110.815V110.749C145.488 110.925 145.444 111.101 145.4 111.276C145.356 111.43 145.323 111.595 145.301 111.77C145.279 111.946 145.246 112.111 145.202 112.265L143.555 112.989C143.446 113.033 143.303 113.066 143.127 113.088C142.974 113.11 142.82 113.077 142.666 112.989C142.534 112.923 142.436 112.77 142.37 112.528C142.304 112.286 142.326 111.924 142.436 111.441L144.511 102.844C144.577 102.559 144.631 102.284 144.675 102.021C144.719 101.779 144.741 101.549 144.741 101.329C144.763 101.087 144.752 100.89 144.708 100.736C145.082 100.56 145.411 100.429 145.696 100.341C145.982 100.253 146.213 100.187 146.388 100.143C146.608 100.077 146.794 100.044 146.948 100.044C147.651 100.044 147.881 100.648 147.64 101.856C147.552 102.207 147.42 102.723 147.245 103.404C147.662 102.877 148.101 102.383 148.562 101.922C149.045 101.439 149.528 101.011 150.011 100.637C150.494 100.264 150.978 99.9676 151.461 99.748C151.966 99.5284 152.46 99.4186 152.943 99.4186C153.316 99.4186 153.624 99.5284 153.865 99.748C154.129 99.9676 154.326 100.264 154.458 100.637C154.612 100.989 154.7 101.417 154.722 101.922C154.744 102.405 154.722 102.91 154.656 103.437C155.007 102.976 155.391 102.515 155.809 102.054C156.248 101.571 156.698 101.142 157.159 100.769C157.642 100.396 158.136 100.088 158.641 99.8468C159.146 99.6053 159.651 99.4845 160.156 99.4845C160.749 99.4845 161.199 99.6602 161.507 100.011C161.836 100.363 162.056 100.813 162.166 101.362C162.297 101.911 162.33 102.504 162.264 103.141C162.221 103.777 162.133 104.392 162.001 104.985L160.881 109.432C160.639 110.53 160.87 111.079 161.573 111.079C162.122 111.079 162.726 110.815 163.384 110.288C164.043 109.761 164.68 109.135 165.295 108.411C165.932 107.686 166.524 106.94 167.073 106.171C167.622 105.402 168.084 104.788 168.457 104.326C168.589 104.173 168.72 104.085 168.852 104.063C169.006 104.041 169.127 104.074 169.214 104.162C169.324 104.228 169.379 104.348 169.379 104.524C169.401 104.7 169.346 104.919 169.214 105.183C168.775 105.951 168.237 106.808 167.6 107.752C166.964 108.674 166.261 109.542 165.492 110.354C164.746 111.167 163.944 111.847 163.088 112.396C162.232 112.945 161.342 113.22 160.42 113.22C160.112 113.22 159.805 113.187 159.498 113.121C159.212 113.055 158.938 112.934 158.674 112.759C158.433 112.583 158.235 112.352 158.081 112.067C157.928 111.759 157.851 111.375 157.851 110.914Z" fill="black"/>
<path d="M181.632 105.578C180.973 106.544 180.227 107.488 179.392 108.411C178.558 109.311 177.669 110.124 176.724 110.848C175.802 111.551 174.847 112.122 173.859 112.561C172.893 113 171.948 113.22 171.026 113.22C170.543 113.22 170.016 113.099 169.445 112.857C168.896 112.638 168.391 112.286 167.93 111.803C167.469 111.32 167.095 110.694 166.81 109.926C166.546 109.157 166.47 108.224 166.579 107.126C166.667 106.226 166.942 105.282 167.403 104.293C167.886 103.283 168.468 102.361 169.149 101.527C169.851 100.692 170.631 100.001 171.487 99.4515C172.366 98.9026 173.244 98.6281 174.122 98.6281C174.957 98.6281 175.561 98.8367 175.934 99.2539C176.307 99.6711 176.472 100.187 176.428 100.802C176.362 101.483 176.164 102.109 175.835 102.679C175.528 103.25 175.154 103.766 174.715 104.228C174.276 104.689 173.804 105.106 173.299 105.479C172.816 105.853 172.355 106.193 171.915 106.5C171.432 106.83 170.971 107.148 170.532 107.456C170.093 107.741 169.708 108.005 169.379 108.246C169.401 108.795 169.5 109.256 169.676 109.629C169.851 110.003 170.071 110.31 170.334 110.552C170.598 110.771 170.894 110.936 171.224 111.046C171.575 111.134 171.926 111.178 172.278 111.178C173.024 111.178 173.804 110.947 174.616 110.486C175.429 110.003 176.219 109.432 176.988 108.773C177.778 108.092 178.503 107.39 179.162 106.665C179.843 105.94 180.402 105.315 180.842 104.788C180.995 104.612 181.149 104.513 181.303 104.491C181.478 104.447 181.61 104.469 181.698 104.557C181.808 104.623 181.863 104.755 181.863 104.952C181.863 105.128 181.786 105.337 181.632 105.578ZM173.2 100.506C172.936 100.506 172.618 100.637 172.245 100.901C171.893 101.164 171.542 101.549 171.191 102.054C170.839 102.537 170.51 103.141 170.203 103.865C169.895 104.568 169.665 105.38 169.511 106.303C169.774 106.105 170.06 105.907 170.367 105.71C170.675 105.49 170.982 105.26 171.29 105.018C172.234 104.293 172.893 103.657 173.266 103.108C173.639 102.559 173.848 102.087 173.892 101.691C173.936 101.274 173.892 100.978 173.76 100.802C173.628 100.604 173.441 100.506 173.2 100.506Z" fill="black"/>
<path d="M178.009 112.265C177.855 112.506 177.691 112.66 177.515 112.726C177.317 112.814 177.153 112.824 177.021 112.759C176.867 112.715 176.768 112.605 176.724 112.429C176.68 112.254 176.724 112.034 176.856 111.77C176.922 111.639 177.076 111.342 177.317 110.881C177.537 110.42 177.811 109.871 178.141 109.234C178.448 108.575 178.788 107.873 179.162 107.126C179.535 106.358 179.886 105.633 180.216 104.952C180.567 104.272 180.886 103.668 181.171 103.141C181.456 102.592 181.665 102.196 181.797 101.955C181.555 101.735 181.391 101.582 181.303 101.494C181.215 101.384 181.149 101.164 181.105 100.835C181.061 100.549 181.127 100.176 181.303 99.715C181.478 99.2539 181.709 98.8147 181.994 98.3975C182.28 97.9583 182.598 97.585 182.95 97.2776C183.301 96.9702 183.641 96.8165 183.971 96.8165C184.586 96.8165 185.014 97.0141 185.255 97.4094C185.519 97.8046 185.673 98.2109 185.717 98.6281C185.76 98.9136 185.738 99.2759 185.651 99.715C185.563 100.154 185.398 100.549 185.157 100.901C185.222 100.945 185.31 101 185.42 101.066C185.53 101.109 185.706 101.131 185.947 101.131C186.298 101.131 186.54 101.109 186.672 101.066C186.825 101.022 187.056 101 187.363 101C187.737 101 188.044 101.098 188.286 101.296C188.527 101.472 188.725 101.702 188.879 101.988C189.032 102.251 189.142 102.548 189.208 102.877C189.296 103.185 189.351 103.47 189.373 103.734C189.439 104.282 189.296 104.853 188.944 105.446C188.593 106.039 188.165 106.687 187.66 107.39C187.352 107.829 187.045 108.323 186.738 108.872C186.43 109.421 186.298 109.915 186.342 110.354C186.386 110.64 186.463 110.87 186.573 111.046C186.683 111.221 186.99 111.309 187.495 111.309C187.868 111.309 188.275 111.178 188.714 110.914C189.175 110.629 189.636 110.277 190.097 109.86C190.58 109.421 191.053 108.949 191.514 108.444C191.975 107.917 192.403 107.412 192.798 106.929C193.193 106.423 193.523 105.973 193.786 105.578C194.072 105.183 194.28 104.897 194.412 104.722C194.522 104.546 194.665 104.425 194.84 104.359C195.016 104.293 195.17 104.293 195.302 104.359C195.433 104.425 195.51 104.557 195.532 104.755C195.576 104.952 195.499 105.216 195.302 105.545C195.17 105.765 194.939 106.116 194.61 106.599C194.302 107.082 193.918 107.62 193.457 108.213C193.018 108.806 192.524 109.421 191.975 110.058C191.426 110.673 190.844 111.243 190.229 111.77C189.636 112.276 189.032 112.693 188.417 113.022C187.825 113.351 187.254 113.516 186.705 113.516C186.134 113.516 185.662 113.406 185.288 113.187C184.915 112.967 184.608 112.704 184.366 112.396C184.146 112.067 183.982 111.716 183.872 111.342C183.784 110.947 183.751 110.585 183.773 110.255C183.795 109.992 183.861 109.717 183.971 109.432C184.103 109.124 184.245 108.817 184.399 108.51C184.575 108.18 184.75 107.862 184.926 107.554C185.124 107.225 185.299 106.907 185.453 106.599C185.826 105.962 186.123 105.424 186.342 104.985C186.584 104.524 186.705 104.14 186.705 103.832C186.705 103.635 186.661 103.459 186.573 103.305C186.485 103.152 186.342 103.075 186.145 103.075C186.013 103.075 185.914 103.086 185.848 103.108C185.804 103.108 185.749 103.108 185.684 103.108C185.64 103.108 185.563 103.119 185.453 103.141C185.365 103.141 185.222 103.141 185.025 103.141C184.739 103.141 184.498 103.097 184.3 103.009C184.103 102.921 183.916 102.855 183.74 102.811C183.652 102.965 183.455 103.294 183.147 103.799C182.84 104.304 182.478 104.897 182.06 105.578C181.665 106.259 181.237 106.972 180.776 107.719C180.337 108.466 179.919 109.168 179.524 109.827C179.129 110.464 178.799 111.013 178.536 111.474C178.25 111.913 178.075 112.177 178.009 112.265Z" fill="black"/>
<path d="M198.562 111.309C199.243 111.309 199.99 111.046 200.802 110.519C201.637 109.97 202.438 109.333 203.207 108.608C203.997 107.884 204.711 107.148 205.348 106.402C206.006 105.633 206.501 105.018 206.83 104.557C207.028 104.272 207.214 104.107 207.39 104.063C207.566 103.997 207.697 104.019 207.785 104.129C207.873 104.239 207.906 104.414 207.884 104.656C207.862 104.875 207.763 105.128 207.588 105.413C207.434 105.677 207.17 106.061 206.797 106.566C206.446 107.049 206.017 107.587 205.512 108.18C205.029 108.751 204.469 109.344 203.833 109.959C203.218 110.552 202.57 111.101 201.889 111.606C201.208 112.089 200.506 112.484 199.781 112.792C199.057 113.121 198.343 113.286 197.64 113.286C196.674 113.286 195.861 113.099 195.203 112.726C194.566 112.374 194.05 111.913 193.655 111.342C193.281 110.771 193.018 110.146 192.864 109.465C192.71 108.762 192.634 108.07 192.634 107.39C192.634 106.709 192.787 105.864 193.095 104.853C193.402 103.843 193.852 102.877 194.445 101.955C195.06 101.011 195.829 100.209 196.751 99.5504C197.673 98.8696 198.76 98.5293 200.012 98.5293C200.714 98.5293 201.307 98.7708 201.79 99.2539C202.295 99.737 202.537 100.396 202.515 101.23C202.515 101.625 202.449 102.021 202.317 102.416C202.186 102.789 202.01 103.13 201.79 103.437C201.571 103.723 201.307 103.953 201 104.129C200.714 104.304 200.396 104.392 200.045 104.392C199.759 104.392 199.54 104.293 199.386 104.096C199.254 103.876 199.166 103.635 199.122 103.371C199.1 103.086 199.1 102.811 199.122 102.548C199.166 102.284 199.21 102.109 199.254 102.021C199.364 101.867 199.485 101.757 199.616 101.691C199.748 101.625 199.902 101.549 200.078 101.461C200.209 101.395 200.308 101.296 200.374 101.164C200.462 101.033 200.506 100.89 200.506 100.736C200.506 100.582 200.462 100.451 200.374 100.341C200.286 100.231 200.143 100.176 199.946 100.176C199.748 100.176 199.386 100.341 198.859 100.67C198.354 100.978 197.827 101.45 197.278 102.087C196.751 102.701 196.279 103.481 195.861 104.425C195.444 105.369 195.225 106.467 195.203 107.719C195.181 108.444 195.28 109.037 195.499 109.498C195.719 109.959 195.993 110.321 196.323 110.585C196.652 110.848 197.014 111.035 197.41 111.145C197.805 111.254 198.189 111.309 198.562 111.309Z" fill="black"/>
<path d="M220.137 105.578C219.478 106.544 218.732 107.488 217.897 108.411C217.063 109.311 216.173 110.124 215.229 110.848C214.307 111.551 213.352 112.122 212.364 112.561C211.397 113 210.453 113.22 209.531 113.22C209.048 113.22 208.521 113.099 207.95 112.857C207.401 112.638 206.896 112.286 206.435 111.803C205.974 111.32 205.6 110.694 205.315 109.926C205.051 109.157 204.974 108.224 205.084 107.126C205.172 106.226 205.447 105.282 205.908 104.293C206.391 103.283 206.973 102.361 207.653 101.527C208.356 100.692 209.136 100.001 209.992 99.4515C210.87 98.9026 211.749 98.6281 212.627 98.6281C213.462 98.6281 214.065 98.8367 214.439 99.2539C214.812 99.6711 214.977 100.187 214.933 100.802C214.867 101.483 214.669 102.109 214.34 102.679C214.032 103.25 213.659 103.766 213.22 104.228C212.781 104.689 212.309 105.106 211.804 105.479C211.321 105.853 210.859 106.193 210.42 106.5C209.937 106.83 209.476 107.148 209.037 107.456C208.598 107.741 208.213 108.005 207.884 108.246C207.906 108.795 208.005 109.256 208.18 109.629C208.356 110.003 208.576 110.31 208.839 110.552C209.103 110.771 209.399 110.936 209.729 111.046C210.08 111.134 210.431 111.178 210.783 111.178C211.529 111.178 212.309 110.947 213.121 110.486C213.934 110.003 214.724 109.432 215.493 108.773C216.283 108.092 217.008 107.39 217.667 106.665C218.347 105.94 218.907 105.315 219.346 104.788C219.5 104.612 219.654 104.513 219.808 104.491C219.983 104.447 220.115 104.469 220.203 104.557C220.313 104.623 220.368 104.755 220.368 104.952C220.368 105.128 220.291 105.337 220.137 105.578ZM211.705 100.506C211.441 100.506 211.123 100.637 210.75 100.901C210.398 101.164 210.047 101.549 209.696 102.054C209.344 102.537 209.015 103.141 208.707 103.865C208.4 104.568 208.169 105.38 208.016 106.303C208.279 106.105 208.565 105.907 208.872 105.71C209.18 105.49 209.487 105.26 209.794 105.018C210.739 104.293 211.397 103.657 211.771 103.108C212.144 102.559 212.353 102.087 212.397 101.691C212.44 101.274 212.397 100.978 212.265 100.802C212.133 100.604 211.946 100.506 211.705 100.506Z" fill="black"/>
<path fill-rule="evenodd" clip-rule="evenodd" d="M109.942 80.9491C132.295 80.9491 150.417 62.828 150.417 40.4746C150.417 18.1211 132.295 0 109.942 0C87.5885 0 69.4674 18.1211 69.4674 40.4746C69.4674 62.828 87.5885 80.9491 109.942 80.9491ZM102.311 30.1932C102.055 30.6323 101.945 30.9068 101.982 31.0166C102.201 31.1264 102.458 31.1996 102.75 31.2362C103.043 31.2728 103.318 31.2911 103.574 31.2911C103.867 31.2911 104.159 31.2545 104.452 31.1813C105.514 30.9617 106.282 30.7238 106.758 30.4676C107.234 30.2115 107.581 29.9736 107.801 29.754C107.911 29.6808 108.13 29.2599 108.46 28.4913C108.826 27.6862 109.118 26.7163 109.338 25.5818C109.594 24.4107 109.686 23.148 109.613 21.7939C109.539 20.4398 109.118 19.1588 108.35 17.9511C106.52 14.8037 102.659 13.8155 96.7666 14.9866C95.7053 15.2062 94.4793 15.7186 93.0885 16.5238C91.7344 17.3289 90.4718 18.372 89.3006 19.6529C88.1661 20.9338 87.2511 22.4344 86.5558 24.1545C85.897 25.838 85.714 27.7045 86.0068 29.754C86.2264 31.2179 86.6473 32.572 87.2694 33.8164C87.9282 35.0607 88.6602 36.2135 89.4653 37.2749C90.2705 38.3362 91.0756 39.3244 91.8808 40.2393C92.7225 41.1177 93.4362 41.9411 94.0218 42.7097C94.6073 43.4783 95.1746 44.4115 95.7236 45.5095C96.3092 46.5708 96.7666 47.7236 97.096 48.968C97.462 50.2123 97.6267 51.5115 97.5901 52.8657C97.5901 54.2198 97.279 55.5556 96.6568 56.8732C94.7903 61.1185 92.5213 63.2046 89.8496 63.1314C88.7516 63.0948 87.8733 62.7472 87.2145 62.0884C86.5558 61.4662 86.0434 60.6977 85.6774 59.7827C85.348 58.9044 85.1467 57.9711 85.0735 56.983C85.0369 56.0314 85.0918 55.208 85.2382 54.5126C85.3114 54.293 85.4212 54.0368 85.5676 53.744C85.7872 53.1951 86.1715 52.6095 86.7205 51.9873C86.3179 51.8409 85.8787 51.786 85.4029 51.8226C84.9637 51.8226 84.5429 51.8592 84.1403 51.9324C83.6645 52.0422 83.1887 52.1703 82.713 52.3167C82.3104 52.4997 81.9261 52.701 81.5601 52.9206C81.2307 53.1036 80.9014 53.3232 80.572 53.5793C80.2426 53.8355 79.9315 54.1283 79.6387 54.4577C79.2361 55.7386 79.1447 56.9647 79.3642 58.1358C79.5472 59.3435 79.84 60.4049 80.2426 61.3198C80.6818 62.3812 81.2856 63.3693 82.0542 64.2843C82.713 65.0894 83.4632 65.675 84.305 66.041C85.1467 66.4436 85.9702 66.6998 86.7754 66.8096C87.6171 66.9559 88.404 66.9742 89.1359 66.8644C89.9045 66.7913 90.5633 66.6998 91.1122 66.59C91.8076 66.4436 92.6859 66.1142 93.7473 65.6018C94.8086 65.126 95.8517 64.3392 96.8764 63.2412C97.9378 62.1433 98.9076 60.6794 99.786 58.8495C100.664 57.0562 101.305 54.8054 101.707 52.0971C101.964 50.2306 101.982 48.5288 101.762 46.9917C101.543 45.4546 101.158 44.0638 100.609 42.8195C100.06 41.5752 99.42 40.4589 98.688 39.4708C97.9561 38.4826 97.2241 37.6043 96.4921 36.8357C95.7602 36.0306 95.0831 35.3169 94.461 34.6947C93.8388 34.0726 93.3813 33.5053 93.0885 32.9929C92.8689 32.6269 92.631 32.2061 92.3749 31.7303C92.1187 31.2545 91.8808 30.7421 91.6612 30.1932C91.4416 29.6442 91.2586 29.0403 91.1122 28.3816C91.0024 27.7228 90.9841 27.0091 91.0573 26.2406C91.1305 25.289 91.4416 24.3558 91.9906 23.4408C92.5762 22.5259 93.2715 21.7024 94.0767 20.9704C94.8818 20.2019 95.7602 19.5431 96.7117 18.9941C97.6999 18.4086 98.6331 17.9877 99.5115 17.7315C100.426 17.4387 101.232 17.3289 101.927 17.4021C102.659 17.4387 103.208 17.6766 103.574 18.1158C104.196 18.9575 104.58 19.8359 104.727 20.7508C104.873 21.6658 104.873 22.5808 104.727 23.4957C104.617 24.4107 104.397 25.3073 104.068 26.1857C103.775 27.0274 103.464 27.796 103.135 28.4913C102.842 29.1501 102.567 29.7174 102.311 30.1932ZM115.322 65.1077C116.822 65.9861 118.488 66.4253 120.318 66.4253C121.781 66.4253 123.172 66.1142 124.49 65.492C125.807 64.8699 127.015 64.0464 128.113 63.0216C129.247 62.0335 130.254 60.9173 131.132 59.6729C132.047 58.4286 132.816 57.1843 133.438 55.9399C133.658 55.4641 133.731 55.0616 133.658 54.7322C133.584 54.3662 133.438 54.11 133.218 53.9636C132.999 53.7806 132.743 53.744 132.45 53.8538C132.157 53.9636 131.883 54.2564 131.626 54.7322C131.26 55.3909 130.73 56.1412 130.034 56.983C129.376 57.8613 128.57 58.7031 127.619 59.5082C126.704 60.3134 125.679 60.9905 124.545 61.5394C123.41 62.0884 122.202 62.3629 120.921 62.3629C120.116 62.3629 119.311 62.1616 118.506 61.759C117.701 61.3564 116.969 60.6977 116.31 59.7827C115.688 58.8678 115.194 57.6966 114.828 56.2693C114.498 54.842 114.37 53.1036 114.444 51.0541C114.627 46.5159 115.267 42.2156 116.365 38.1532C117.499 34.0909 118.872 30.5408 120.482 27.5032C122.129 24.429 123.904 21.9952 125.807 20.2019C127.71 18.4086 129.522 17.5119 131.242 17.5119C132.12 17.5119 132.907 17.8596 133.603 18.555C134.298 19.2503 134.609 20.3483 134.536 21.8488C134.426 23.3859 134.206 24.7766 133.877 26.021C133.584 27.1189 133.145 28.1803 132.56 29.205C132.011 30.1932 131.242 30.8885 130.254 31.2911C130.583 32.1329 130.931 32.7733 131.297 33.2125C131.7 33.6517 132.084 33.9811 132.45 34.2006C132.852 34.4568 133.273 34.6032 133.712 34.6398C134.627 34.6398 135.433 34.3836 136.128 33.8713C136.86 33.3223 137.464 32.6086 137.939 31.7303C138.452 30.8153 138.836 29.7906 139.092 28.656C139.385 27.5215 139.568 26.3504 139.641 25.1426C139.678 23.8617 139.568 22.5991 139.312 21.3547C139.056 20.1104 138.598 18.9941 137.939 18.006C137.317 17.0178 136.476 16.231 135.414 15.6454C134.389 15.0232 133.127 14.7122 131.626 14.7122C129.174 14.7122 126.923 15.2794 124.874 16.414C122.824 17.5119 120.958 18.9758 119.274 20.8057C117.591 22.6357 116.09 24.7583 114.773 27.1738C113.492 29.5527 112.394 32.0414 111.479 34.6398C110.564 37.2017 109.85 39.7636 109.338 42.3254C108.862 44.8873 108.588 47.2662 108.515 49.4621C108.441 51.8043 108.661 54.0185 109.173 56.1046C109.722 58.1541 110.509 59.9474 111.534 61.4845C112.595 63.0216 113.858 64.2294 115.322 65.1077Z" fill="black"/>
</svg>
