<svg width="160" height="26" viewBox="0 0 160 26" fill="none" xmlns="http://www.w3.org/2000/svg">
<path d="M82.74 0.581215H88.6352V15.6928C88.6352 21.588 85.0233 25.1168 79.6264 25.1168C74.1463 25.1168 70.8666 21.754 70.8666 15.6928V0.581215H76.8033V15.4437C76.8033 18.1422 77.6751 19.5537 79.6679 19.5537C81.7436 19.5537 82.74 18.1837 82.74 15.4437V0.581215ZM107.774 8.71822C107.774 11.8319 106.362 14.4058 103.954 15.9004C102.418 16.8137 100.509 16.9798 98.0176 16.9798H96.3155V24.7431H90.3788V0.581215H98.3913C100.924 0.581215 102.875 0.747275 104.494 1.9097C106.653 3.40425 107.774 5.6876 107.774 8.71822ZM101.796 8.80125C101.796 6.80851 100.55 5.9782 97.9346 5.9782H96.357V11.7073H97.4364C100.342 11.7488 101.796 11.0016 101.796 8.80125ZM148.749 14.0322L139.865 0.581215H134.551V24.7431H140.446V11.2922L149.455 24.7431H154.645V0.581215H148.749V14.0322ZM65.6357 3.73638C68.0851 6.14427 69.3721 9.2164 69.3721 12.5376C69.3721 15.9834 68.1681 19.097 65.8848 21.4219C63.5599 23.8713 60.3633 25.1998 57.0005 25.1998C53.4302 25.1998 50.3581 23.9128 47.9917 21.3804C45.7084 18.9725 44.5459 15.9834 44.5459 12.4131C44.5459 9.09185 45.8329 6.01972 48.1993 3.69486C50.5656 1.37001 53.5547 0.166062 57.0005 0.166062C60.2387 0.166062 63.3108 1.41152 65.6357 3.73638ZM63.2693 12.4961C63.2693 8.96731 60.4463 6.14426 57.042 6.14426C53.4302 6.14426 50.6072 8.96731 50.6072 12.4961C50.6072 16.3155 53.6378 19.2216 56.959 19.2216C60.4463 19.2216 63.2693 16.4401 63.2693 12.4961ZM129.652 3.73638C132.102 6.14427 133.389 9.2164 133.389 12.5376C133.389 15.9834 132.185 19.097 129.901 21.4219C127.577 23.8713 124.38 25.1998 121.017 25.1998C117.447 25.1998 114.416 23.9128 112.008 21.3804C109.725 18.9725 108.563 15.9834 108.563 12.4131C108.563 9.09185 109.85 6.01972 112.216 3.69486C114.582 1.37001 117.571 0.166062 121.017 0.166062C124.214 0.166062 127.286 1.41152 129.652 3.73638ZM127.286 12.4961C127.286 8.96731 124.463 6.14426 121.059 6.14426C117.447 6.14426 114.624 8.96731 114.624 12.4961C114.624 16.3155 117.654 19.2216 120.976 19.2216C124.421 19.2216 127.244 16.4401 127.286 12.4961ZM10.9185 11.1676V15.9834H17.8101C16.6061 18.1007 14.6134 19.2631 12.3716 19.2631C9.05034 19.2631 6.06123 16.3155 6.06123 12.4546C6.06123 8.96731 8.84276 6.10275 12.3716 6.10275C14.2813 6.10275 15.8173 6.89154 17.3534 8.4276H24.0789C22.1277 3.27971 17.644 0.0830325 12.4546 0.0830325C9.00882 0.0830325 6.01972 1.28697 3.65335 3.65335C1.28697 5.9782 0 9.05033 0 12.3716C0 15.9419 1.16243 18.931 3.40425 21.3389C5.77063 23.8713 8.80124 25.1583 12.3716 25.1583C16.4816 25.1583 20.3425 23.124 22.6674 19.7613C24.0789 17.727 24.7431 15.4022 24.7431 12.7037C24.7431 12.2055 24.7016 11.6658 24.6601 11.0846H10.9185V11.1676ZM38.1526 16.4401L44.0477 24.7431H36.7826L32.1744 16.9798V24.7431H26.2377V0.581215H34.2501C36.7826 0.581215 38.7338 0.747275 40.3529 1.9097C42.5117 3.40425 43.6326 5.6876 43.6326 8.6767C43.6326 12.5791 41.5983 15.4852 38.1526 16.4401ZM37.6544 8.80125C37.6544 6.80851 36.4089 5.9782 33.7935 5.9782H32.1744V11.7073H33.3368C36.2429 11.7488 37.6544 11.0016 37.6544 8.80125ZM160 1.82667C160 2.32486 159.834 2.74001 159.46 3.11365C159.128 3.48729 158.671 3.65335 158.173 3.65335C157.675 3.65335 157.26 3.48729 156.886 3.11365C156.554 2.78153 156.347 2.32486 156.347 1.82667C156.347 1.32849 156.513 0.913338 156.886 0.5397C157.218 0.207578 157.675 0 158.173 0C158.671 0 159.128 0.166063 159.46 0.5397C159.792 0.913338 160 1.32849 160 1.82667ZM159.751 1.82667C159.751 1.41152 159.585 1.03788 159.294 0.705762C159.004 0.415155 158.63 0.249091 158.173 0.249091C157.758 0.249091 157.385 0.415155 157.052 0.705762C156.762 0.996369 156.596 1.37001 156.596 1.82667C156.596 2.28334 156.762 2.61546 157.052 2.94759C157.343 3.23819 157.717 3.40426 158.173 3.40426C158.63 3.40426 158.962 3.23819 159.294 2.94759C159.585 2.65698 159.751 2.28334 159.751 1.82667ZM158.796 1.78516C158.713 1.82667 158.63 1.86819 158.505 1.86819C158.672 1.9097 158.755 1.95122 158.838 2.07577C158.921 2.20031 158.962 2.28334 158.962 2.36637V2.53243C158.962 2.57395 158.962 2.61546 158.962 2.69849C158.962 2.74001 158.962 2.78153 158.962 2.82304V2.86456H158.63C158.63 2.86456 158.63 2.86456 158.63 2.82304V2.74001V2.57395C158.63 2.32486 158.588 2.20031 158.422 2.11728C158.339 2.07576 158.215 2.03425 158.049 2.03425H157.758V2.82304H157.426V0.830306H158.132C158.381 0.830306 158.547 0.871823 158.672 0.913339C158.879 0.996369 158.962 1.16243 158.962 1.41152C159.004 1.57758 158.921 1.70213 158.796 1.78516ZM158.672 1.41152C158.672 1.24546 158.63 1.16243 158.547 1.12092C158.464 1.0794 158.298 1.03788 158.132 1.03788H157.841V1.74364H158.173C158.339 1.74364 158.422 1.74364 158.505 1.70213C158.588 1.70213 158.672 1.57758 158.672 1.41152Z" fill="#141414"/>
</svg>
