<svg width="106" height="48" viewBox="0 0 106 48" fill="none" xmlns="http://www.w3.org/2000/svg">
<path d="M2.16424 45.9626C1.63778 46.1732 1.33946 45.9099 1.51495 45.3659L3.00656 40.5401C3.19281 39.8847 3.25822 39.2009 3.1996 38.522L0.00577908 8.09304C-0.00871004 7.95883 0.00411432 7.82308 0.0434798 7.69397C0.0828452 7.56485 0.147937 7.44503 0.234835 7.34174C0.321733 7.23845 0.42864 7.15381 0.549115 7.09293C0.66959 7.03205 0.801142 6.99618 0.935846 6.98748L105.033 0.00320453C105.162 -0.00782904 105.292 0.00971073 105.413 0.0545705C105.534 0.0994303 105.644 0.170503 105.734 0.262709C105.825 0.354915 105.894 0.465979 105.936 0.587965C105.979 0.70995 105.994 0.839845 105.981 0.968369L101.752 47.033C101.722 47.3095 101.586 47.5638 101.374 47.7434C101.162 47.923 100.889 48.0142 100.611 47.9982L12.1668 42.3125C11.4846 42.2917 10.8049 42.4049 10.1663 42.6459L2.16424 45.9626ZM49.8785 20.5173C48.7027 20.5173 47.7726 20.8859 47.0882 21.5878V16.6391H44.8771V26.9576C44.8771 28.4668 45.3334 29.7127 46.2284 30.6428C47.1233 31.5729 48.3517 32.0467 49.896 32.0467C51.4403 32.0467 52.6862 31.5729 53.5812 30.6428C54.4761 29.7127 54.9324 28.4668 54.9324 26.9576V25.7117C54.9149 22.2722 53.2302 20.5173 49.8785 20.5173ZM49.8785 22.6758C50.8085 22.6758 51.5105 22.9039 51.9843 23.3777C52.4581 23.8515 52.7037 24.6412 52.7037 25.7292V26.9752C52.7037 27.8877 52.4581 28.5896 51.9492 29.1336C51.4403 29.6776 50.7734 29.9233 49.8785 29.9233C48.9835 29.9233 48.2991 29.6601 47.8253 29.1336C47.3515 28.6072 47.0882 27.8877 47.0882 26.9752V25.7117C47.0882 24.6237 47.3339 23.834 47.7902 23.3602C48.2464 22.8864 48.9659 22.6758 49.8785 22.6758ZM65.9353 22.9917H58.9334V16.604H56.6521V31.9238H58.9334V25.2203H65.9353V31.9238H68.2341V16.604H65.9353V22.9917ZM85.572 20.5173C84.3962 20.5173 83.4662 20.8859 82.7818 21.5878V16.6391H80.5707V26.9576C80.5707 28.4668 81.0269 29.7127 81.9219 30.6428C82.8169 31.5729 84.0453 32.0467 85.5895 32.0467C87.1338 32.0467 88.3797 31.5729 89.2747 30.6428C90.1697 29.7127 90.6259 28.4668 90.6259 26.9576V25.7117C90.6084 22.2722 88.9062 20.5173 85.572 20.5173ZM85.572 22.6758C86.5021 22.6758 87.204 22.9039 87.6778 23.3777C88.1516 23.8515 88.3973 24.6412 88.3973 25.7292V26.9752C88.3973 27.8701 88.1516 28.6072 87.6427 29.1336C87.1338 29.6601 86.4494 29.9233 85.572 29.9233C84.6946 29.9233 83.9926 29.6601 83.5188 29.1336C83.045 28.6072 82.7818 27.8877 82.7818 26.9752V25.7117C82.7818 24.6237 83.0275 23.834 83.4837 23.3602C83.94 22.8864 84.6595 22.6758 85.572 22.6758ZM40.9463 26.8523C40.9463 27.993 40.7708 28.8177 40.4374 29.2565C40.104 29.6952 39.56 29.9057 38.7352 29.9057H38.665C37.8578 29.9057 37.2787 29.6776 36.9628 29.2565C36.6294 28.8002 36.4539 27.993 36.4539 26.8523V20.8157H34.2779V26.8523C34.2779 28.6949 34.6113 30.0461 35.2957 30.8358C35.945 31.6079 36.9979 32.0116 38.4369 32.0467H38.9458C40.3847 32.0116 41.4376 31.6079 42.0869 30.8358C42.7538 30.0286 43.1048 28.6949 43.1048 26.8523V20.8157H40.9463V26.8523ZM76.6398 26.8523C76.6398 27.993 76.4643 28.8002 76.1309 29.2565C75.815 29.6776 75.2535 29.9057 74.4463 29.9057H74.341C73.5338 29.9057 72.9547 29.6776 72.6388 29.2565C72.3054 28.8002 72.1299 27.993 72.1299 26.8523V20.8157H69.9539V26.8523C69.9539 28.6949 70.2873 30.0461 70.9717 30.8358C71.621 31.6079 72.6739 32.0116 74.1128 32.0467H74.6393C76.0783 32.0116 77.1312 31.6079 77.7805 30.8358C78.4298 30.0637 78.7983 28.6949 78.7983 26.8523V20.8157H76.6223V26.8523H76.6398ZM23.3628 23.6234L18.0456 21.851C17.7313 21.7528 17.4434 21.5849 17.2033 21.3597C17.1159 21.2854 17.0445 21.1943 16.9932 21.0918C16.9419 20.9893 16.9119 20.8774 16.9049 20.763V20.412C16.9049 19.1661 17.9403 18.5344 20.0636 18.4993H20.2567C22.38 18.4993 23.468 19.0608 23.5909 20.2015L23.6084 20.3769H25.8897V20.1839C25.7844 17.5867 23.8892 16.2531 20.2567 16.2531H20.0286C16.4662 16.2882 14.6763 17.692 14.6763 20.412V20.763C14.6698 21.486 14.9184 22.1881 15.3782 22.746C15.8345 23.29 16.5189 23.7111 17.3787 23.9919L22.6433 25.7643C23.5382 26.0626 23.977 26.554 23.977 27.291V27.6069C23.977 28.2562 23.6611 28.7476 23.0118 29.1336C22.3625 29.5197 21.3973 29.7303 20.204 29.7303C19.0107 29.7303 18.0807 29.5372 17.4314 29.1336C16.7821 28.73 16.5013 28.2562 16.5013 27.6069V27.3788H14.2376V27.6069C14.2224 28.2292 14.3601 28.8458 14.6385 29.4026C14.9169 29.9594 15.3275 30.4394 15.8345 30.8007C16.8874 31.5728 18.3439 31.9765 20.204 31.9765C22.0642 31.9765 23.5733 31.5904 24.6087 30.8007C25.1185 30.4422 25.5312 29.9627 25.81 29.4052C26.0887 28.8478 26.2246 28.2299 26.2056 27.6069V27.291C26.2247 26.4581 25.9515 25.6447 25.4335 24.9922C24.8875 24.3483 24.1691 23.8734 23.3628 23.6234ZM30.9086 29.1512C30.4172 28.6247 30.1715 27.9052 30.1715 26.9927V23.0619H32.5406V20.8157H30.1715V16.6391H27.9604V26.9927C27.9604 28.5019 28.4167 29.7478 29.3117 30.6779C30.116 31.4887 31.1901 31.9758 32.33 32.0467L32.5406 32.0642V29.9233L32.3827 29.9057C31.8208 29.8259 31.3019 29.5602 30.9086 29.1512ZM90.0644 20.2015H90.3452V21.0087H90.4855V20.2015H90.7663V20.0962H90.0644V20.2015ZM91.3454 20.7455L91.0997 20.0962H90.8892V21.0087H91.012V20.2541L91.3103 21.0087H91.3981L91.6788 20.2541V21.0087H91.8192V20.0962H91.5911L91.3454 20.7455Z" fill="#141414"/>
</svg>
