<svg width="10" height="13" viewBox="0 0 10 13" fill="none" xmlns="http://www.w3.org/2000/svg">
<path fill-rule="evenodd" clip-rule="evenodd" d="M7.98656 0.861282C8.01282 1.16426 8.08403 1.98578 7.22126 2.88758C6.59715 3.52905 5.8393 3.90487 5.00944 3.84903C4.93914 3.07474 5.26663 2.38798 5.82387 1.83255C6.32967 1.31484 7.21783 0.893736 7.98597 0.854492L7.98656 0.861282ZM9.68956 5.03775C8.79685 5.57656 8.35479 6.30729 8.36051 7.27686C8.36051 7.27822 8.36045 7.28072 8.36034 7.2843C8.35679 7.41167 8.3149 8.91407 10 9.70364C9.67668 10.676 8.56652 12.8356 7.27468 12.854C6.91287 12.854 6.6236 12.7432 6.32535 12.629C6.00801 12.5075 5.6805 12.382 5.24464 12.382C4.77343 12.382 4.41856 12.5155 4.0861 12.6406C3.80385 12.7468 3.53775 12.8469 3.23033 12.854C1.94993 12.8924 0.722461 10.5168 0.381974 9.54725C0.127325 8.81083 0 8.09574 0 7.40339C0 5.0605 1.57511 3.90895 3.05722 3.88621C3.46866 3.88621 3.94396 4.05698 4.34996 4.20286C4.65263 4.31161 4.91679 4.40653 5.08727 4.40653C5.22508 4.40653 5.44994 4.32401 5.72578 4.22277C6.20589 4.04655 6.84043 3.81366 7.4392 3.86061C8.43491 3.93596 9.19027 4.32692 9.68956 5.03775Z" fill="white"/>
</svg>
