<svg width="33" height="32" viewBox="0 0 33 32" fill="none" xmlns="http://www.w3.org/2000/svg">
<path d="M29.9437 15.1938C26.9812 8.95313 22.5031 5.8125 16.4999 5.8125C10.4937 5.8125 6.01869 8.95312 3.05619 15.1969C2.93736 15.4485 2.87573 15.7233 2.87573 16.0016C2.87573 16.2798 2.93736 16.5546 3.05619 16.8062C6.01869 23.0469 10.4968 26.1875 16.4999 26.1875C22.5062 26.1875 26.9812 23.0469 29.9437 16.8031C30.1843 16.2969 30.1843 15.7094 29.9437 15.1938ZM16.4999 23.9375C11.4593 23.9375 7.76869 21.3813 5.16556 16C7.76869 10.6188 11.4593 8.0625 16.4999 8.0625C21.5406 8.0625 25.2312 10.6188 27.8343 16C25.2343 21.3813 21.5437 23.9375 16.4999 23.9375ZM16.3749 10.5C13.3374 10.5 10.8749 12.9625 10.8749 16C10.8749 19.0375 13.3374 21.5 16.3749 21.5C19.4124 21.5 21.8749 19.0375 21.8749 16C21.8749 12.9625 19.4124 10.5 16.3749 10.5ZM16.3749 19.5C14.4406 19.5 12.8749 17.9344 12.8749 16C12.8749 14.0656 14.4406 12.5 16.3749 12.5C18.3093 12.5 19.8749 14.0656 19.8749 16C19.8749 17.9344 18.3093 19.5 16.3749 19.5Z" fill="white"/>
</svg>
