<svg width="227" height="65" viewBox="0 0 227 65" fill="none" xmlns="http://www.w3.org/2000/svg">
<path fill-rule="evenodd" clip-rule="evenodd" d="M63.9861 8.67698C69.0371 2.97708 75.7727 0.0847473 84.1106 0.0847473C92.4479 0.0847473 99.1836 2.97708 104.152 8.67698C109.204 14.3773 111.729 22.0901 111.729 31.9982V32.1718C111.729 42.0799 109.204 49.8823 104.152 55.5822C99.1836 61.2794 92.4479 64.0847 84.1106 64.0847C75.7727 64.0847 69.0371 61.2794 63.9861 55.5822C58.9351 49.8823 56.4068 42.0799 56.4068 32.1718V31.9982C56.4068 22.0901 58.9351 14.3773 63.9861 8.67698ZM84.1106 11.5227C77.3749 11.5227 73.2475 17.6594 73.2475 32.3018V32.4754C73.2475 47.1173 77.3749 53.2545 84.1106 53.2545C90.7637 53.2545 94.8881 47.1173 94.8881 32.4754V32.3018C94.8881 17.6594 90.7637 11.5227 84.1106 11.5227ZM49.6157 20.1274C49.6157 28.0378 45.7275 33.3393 38.2905 36.4848L52.0678 63H34.5709L23.4973 39.9034H16.2268V63H0V0.0847473H26.5391C42.4311 0.0847473 49.6157 8.26504 49.6157 20.1274ZM177.898 1.16949V14.473H194.057V64.0847H210.47V14.473H226.712V1.16949H177.898ZM32.6279 19.9467C32.6279 14.4645 30.09 11.5885 24.0042 11.5885H16.2268V28.3969H24.0042C30.09 28.3969 32.6279 25.6096 32.6279 19.9467ZM137.046 64.0847L137.092 31.4077L159.286 12.6421L144.237 36.0568L144.231 36.5632L156.839 64.0847H175.729L159.227 29.2803L173.086 1.16949H163.555L137.106 20.9285L137.134 1.16949H120.407V64.0847H137.046Z" fill="#25211F"/>
</svg>
