<svg width="167" height="49" viewBox="0 0 167 49" fill="none" xmlns="http://www.w3.org/2000/svg">
<rect x="1" y="1" width="165" height="47" rx="5" stroke="#0554BA" stroke-width="2"/>
<path d="M23.9062 25.9922V30H21.5625V18.625H26C26.8542 18.625 27.6042 18.7812 28.25 19.0938C28.901 19.4062 29.401 19.8516 29.75 20.4297C30.099 21.0026 30.2734 21.6562 30.2734 22.3906C30.2734 23.5052 29.8906 24.3854 29.125 25.0312C28.3646 25.6719 27.3099 25.9922 25.9609 25.9922H23.9062ZM23.9062 24.0938H26C26.6198 24.0938 27.0911 23.9479 27.4141 23.6562C27.7422 23.3646 27.9062 22.9479 27.9062 22.4062C27.9062 21.849 27.7422 21.3984 27.4141 21.0547C27.0859 20.7109 26.6328 20.5339 26.0547 20.5234H23.9062V24.0938ZM31.2812 25.6953C31.2812 24.8568 31.4427 24.1094 31.7656 23.4531C32.0885 22.7969 32.5521 22.2891 33.1562 21.9297C33.7656 21.5703 34.4714 21.3906 35.2734 21.3906C36.4141 21.3906 37.3438 21.7396 38.0625 22.4375C38.7865 23.1354 39.1901 24.0833 39.2734 25.2812L39.2891 25.8594C39.2891 27.1562 38.9271 28.1979 38.2031 28.9844C37.4792 29.7656 36.5078 30.1562 35.2891 30.1562C34.0703 30.1562 33.0964 29.7656 32.3672 28.9844C31.6432 28.2031 31.2812 27.1406 31.2812 25.7969V25.6953ZM33.5391 25.8594C33.5391 26.6615 33.6901 27.276 33.9922 27.7031C34.2943 28.125 34.7266 28.3359 35.2891 28.3359C35.8359 28.3359 36.263 28.1276 36.5703 27.7109C36.8776 27.2891 37.0312 26.6172 37.0312 25.6953C37.0312 24.9089 36.8776 24.2995 36.5703 23.8672C36.263 23.4349 35.8307 23.2188 35.2734 23.2188C34.7214 23.2188 34.2943 23.4349 33.9922 23.8672C33.6901 24.2943 33.5391 24.9583 33.5391 25.8594ZM45.2578 27.6641C45.2578 27.388 45.1198 27.1719 44.8438 27.0156C44.5729 26.8542 44.1354 26.7109 43.5312 26.5859C41.5208 26.1641 40.5156 25.3099 40.5156 24.0234C40.5156 23.2734 40.8255 22.6484 41.4453 22.1484C42.0703 21.6432 42.8854 21.3906 43.8906 21.3906C44.9635 21.3906 45.8203 21.6432 46.4609 22.1484C47.1068 22.6536 47.4297 23.3099 47.4297 24.1172H45.1719C45.1719 23.7943 45.0677 23.5286 44.8594 23.3203C44.651 23.1068 44.3255 23 43.8828 23C43.5026 23 43.2083 23.0859 43 23.2578C42.7917 23.4297 42.6875 23.6484 42.6875 23.9141C42.6875 24.1641 42.8047 24.3672 43.0391 24.5234C43.2786 24.6745 43.6797 24.8073 44.2422 24.9219C44.8047 25.0312 45.2786 25.1562 45.6641 25.2969C46.8568 25.7344 47.4531 26.4922 47.4531 27.5703C47.4531 28.3411 47.1224 28.9661 46.4609 29.4453C45.7995 29.9193 44.9453 30.1562 43.8984 30.1562C43.1901 30.1562 42.5599 30.0312 42.0078 29.7812C41.4609 29.526 41.0312 29.1797 40.7188 28.7422C40.4062 28.2995 40.25 27.8229 40.25 27.3125H42.3906C42.4115 27.7135 42.5599 28.0208 42.8359 28.2344C43.112 28.4479 43.4818 28.5547 43.9453 28.5547C44.3776 28.5547 44.7031 28.474 44.9219 28.3125C45.1458 28.1458 45.2578 27.9297 45.2578 27.6641ZM51.6172 19.4688V21.5469H53.0625V23.2031H51.6172V27.4219C51.6172 27.7344 51.6771 27.9583 51.7969 28.0938C51.9167 28.2292 52.1458 28.2969 52.4844 28.2969C52.7344 28.2969 52.9557 28.2786 53.1484 28.2422V29.9531C52.7057 30.0885 52.25 30.1562 51.7812 30.1562C50.1979 30.1562 49.3906 29.3568 49.3594 27.7578V23.2031H48.125V21.5469H49.3594V19.4688H51.6172ZM57.9531 25.6953C57.9531 24.8568 58.1146 24.1094 58.4375 23.4531C58.7604 22.7969 59.224 22.2891 59.8281 21.9297C60.4375 21.5703 61.1432 21.3906 61.9453 21.3906C63.0859 21.3906 64.0156 21.7396 64.7344 22.4375C65.4583 23.1354 65.862 24.0833 65.9453 25.2812L65.9609 25.8594C65.9609 27.1562 65.599 28.1979 64.875 28.9844C64.151 29.7656 63.1797 30.1562 61.9609 30.1562C60.7422 30.1562 59.7682 29.7656 59.0391 28.9844C58.3151 28.2031 57.9531 27.1406 57.9531 25.7969V25.6953ZM60.2109 25.8594C60.2109 26.6615 60.362 27.276 60.6641 27.7031C60.9661 28.125 61.3984 28.3359 61.9609 28.3359C62.5078 28.3359 62.9349 28.1276 63.2422 27.7109C63.5495 27.2891 63.7031 26.6172 63.7031 25.6953C63.7031 24.9089 63.5495 24.2995 63.2422 23.8672C62.9349 23.4349 62.5026 23.2188 61.9453 23.2188C61.3932 23.2188 60.9661 23.4349 60.6641 23.8672C60.362 24.2943 60.2109 24.9583 60.2109 25.8594ZM69.4297 21.5469L69.5 22.5234C70.1042 21.7682 70.9141 21.3906 71.9297 21.3906C72.8255 21.3906 73.4922 21.6536 73.9297 22.1797C74.3672 22.7057 74.5911 23.4922 74.6016 24.5391V30H72.3438V24.5938C72.3438 24.1146 72.2396 23.7682 72.0312 23.5547C71.8229 23.3359 71.4766 23.2266 70.9922 23.2266C70.3568 23.2266 69.8802 23.4974 69.5625 24.0391V30H67.3047V21.5469H69.4297Z" fill="#0654BA"/>
<path fill-rule="evenodd" clip-rule="evenodd" d="M81 25.6308C81 19.1486 85.2094 17 90.2609 17C97.1104 17 99 21.6003 99 24.5846V26.4775H84.6998C84.6998 29.494 86.9854 31.6462 90.163 31.6462C94.0646 31.6462 94.8668 28.9 94.8668 28.9H98.6087C98.6087 28.9 98.1137 34 90.3913 34C83.8305 34 81 30.7661 81 25.6308ZM95.2174 24.0615C95.2174 21.2771 93.1553 19.4192 90.1304 19.4192C87.4742 19.4192 84.7826 21.1055 84.7826 24.0615H95.2174Z" fill="#0B59BA"/>
<path fill-rule="evenodd" clip-rule="evenodd" d="M99.0777 29.8835V11H102.587V19.5102C102.587 19.5102 104.074 16.9664 108.861 16.9664C113.973 16.9664 117 20.5194 117 24.9369C117 29.6856 113.705 33 108.854 33C104.247 33 102.552 30.3916 102.552 30.3916C102.552 31.3795 102.429 32.4604 102.429 32.4604H99C99 32.4604 99.0777 30.9554 99.0777 29.8835ZM113.365 24.9369C113.365 21.7081 111.271 19.302 107.976 19.302C104.289 19.302 102.587 22.1771 102.587 24.9678C102.587 27.9627 104.484 30.6643 108 30.6643C110.946 30.6643 113.365 28.3993 113.365 24.9369Z" fill="#0B59BA"/>
<path fill-rule="evenodd" clip-rule="evenodd" d="M116.159 21.8119C116.159 21.1489 116.64 17 124.144 17C127.765 17 131.871 18.0818 131.871 23.2221V31.0617C131.871 31.9687 132 33.3863 132 33.3863H128.68C128.68 33.3863 128.591 32.2426 128.591 31.082C128.591 31.082 126.906 34 121.677 34C117.84 34 115 32.134 115 28.7045C115 25.2198 118.073 23.5025 123.886 23.5025H128.265V22.7222C128.265 20.53 126.353 19.3897 123.886 19.3897C120.09 19.3897 119.894 21.8119 119.894 21.8119H116.159ZM128.265 26.8838V25.8434C122.595 25.8434 118.735 25.8617 118.735 28.7045C118.735 30.2672 119.881 31.6144 122.554 31.6144C127.436 31.6144 128.265 28.2408 128.265 26.8838Z" fill="#0B59BA"/>
<path d="M131 18H134.981L140.694 29.7957L146.394 18H150L139.618 39H135.835L138.831 33.146L131 18Z" fill="#0B59BA"/>
</svg>
